<?xml version="1.0" encoding="UTF-8"?>
<!-- Generator: https://ezgif.com/png-to-svg -->
<svg version="1.1" xmlns="http://www.w3.org/2000/svg" width="800" height="800">
<path d="M0 0 C43.47 -0.08 43.47 -0.08 61.86 -0.1 C74.49 -0.11 87.13 -0.12 99.76 -0.15 C108.97 -0.17 118.18 -0.18 127.38 -0.19 C132.25 -0.19 137.11 -0.2 141.97 -0.21 C223.55 -0.45 223.55 -0.45 230 6 C232.91 6.59 235.83 7.15 238.75 7.69 C246.36 9.15 253.81 10.92 261.25 13.06 C262.11 13.31 262.96 13.55 263.84 13.81 C268.99 15.32 274 17.06 279 19 C279 19.33 279 19.66 279 20 C276.92 19.86 274.83 19.71 272.75 19.56 C271.59 19.48 270.43 19.4 269.23 19.32 C266.69 19.07 264.44 18.72 262 18 C262 17.34 262 16.68 262 16 C260.68 16 259.36 16 258 16 C258 15.34 258 14.68 258 14 C255.36 14 252.72 14 250 14 C250 13.34 250 12.68 250 12 C244.72 12 239.44 12 234 12 C234 12.66 234 13.32 234 14 C235.98 14 237.96 14 240 14 C240.33 15.32 240.66 16.64 241 18 C236.05 18 231.1 18 226 18 C226.33 19.65 226.66 21.3 227 23 C226.56 25.81 226.56 25.81 226 28 C224.35 28 222.7 28 221 28 C220.88 28.64 220.75 29.28 220.62 29.94 C220 32 220 32 218 33 C215.3 32.83 212.68 32.39 210 32 C210 31.01 210 30.02 210 29 C207.69 28.67 205.38 28.34 203 28 C203.03 29.42 203.03 29.42 203.06 30.88 C203 34 203 34 202 36 C202.66 36.33 203.32 36.66 204 37 C203.34 37 202.68 37 202 37 C202.33 37.99 202.66 38.98 203 40 C202.67 40.99 202.34 41.98 202 43 C204.64 43 207.28 43 210 43 C210.33 45.64 210.66 48.28 211 51 C210.36 51.29 209.72 51.58 209.06 51.88 C206.85 52.83 206.85 52.83 206 55 C204.68 55 203.36 55 202 55 C202 55.66 202 56.32 202 57 C204.64 57 207.28 57 210 57 C210 60.33 210 63.67 210 67 C208.35 67 206.7 67 205 67 C204.67 69.64 204.34 72.28 204 75 C204.64 75.29 205.28 75.58 205.94 75.88 C208 77 208 77 209 79 C209.33 79 209.66 79 210 79 C210 82.3 210 85.6 210 89 C204.25 92 204.25 92 202 92 C202 95.3 202 98.6 202 102 C204.64 102 207.28 102 210 102 C210 102.66 210 103.32 210 104 C208.68 104 207.36 104 206 104 C206 104.66 206 105.32 206 106 C202.04 106 198.08 106 194 106 C194 105.34 194 104.68 194 104 C189.71 104.33 185.42 104.66 181 105 C181 105.33 181 105.66 181 106 C161.86 106 142.72 106 123 106 C123 105.34 123 104.68 123 104 C122.01 104 121.02 104 120 104 C120 160.76 120 217.52 120 276 C121.65 276 123.3 276 125 276 C126.68 279.66 128.34 283.33 130 287 C130.33 287.72 130.66 288.44 131 289.18 C132.25 291.99 133 293.89 133 297 C133.66 297 134.32 297 135 297 C136.29 300.06 137.58 303.12 138.88 306.19 C139.42 307.48 139.42 307.48 139.98 308.81 C142.82 315.54 142.82 315.54 144.07 318.72 C145.26 321.64 146.59 324.47 147.94 327.31 C151.25 334.36 154.5 341.43 157.75 348.5 C158.22 349.53 158.69 350.55 159.18 351.61 C161.52 356.71 163.8 361.83 166 367 C166.81 368.77 167.62 370.54 168.44 372.31 C170 375.74 171.5 379.18 172.88 382.69 C177.2 393.65 182.04 404.34 187.42 414.82 C189.08 418.17 190.55 421.55 192 425 C192.39 425.89 192.78 426.77 193.19 427.69 C194 430 194 430 194 434 C194.66 434 195.32 434 196 434 C196 435.32 196 436.64 196 438 C197.05 437.78 198.1 437.57 199.18 437.34 C200.55 437.06 201.93 436.78 203.31 436.5 C204 436.36 204.69 436.21 205.4 436.07 C208.33 435.47 211.01 435 214 435 C214.33 436.32 214.66 437.64 215 439 C210.5 441.25 206.92 441.17 202 441 C202 441.99 202 442.98 202 444 C203.32 444.33 204.64 444.66 206 445 C206 446.98 206 448.96 206 451 C204.02 451.33 202.04 451.66 200 452 C200 450.68 200 449.36 200 448 C199.34 448 198.68 448 198 448 C198 447.34 198 446.68 198 446 C196.68 446 195.36 446 194 446 C194 448.97 194 451.94 194 455 C193.34 454.34 192.68 453.68 192 453 C191.65 456.95 191.65 456.95 194 460 C193.34 460 192.68 460 192 460 C192 461.32 192 462.64 192 464 C190.68 463.67 189.36 463.34 188 463 C188.02 462.07 188.04 461.14 188.06 460.19 C188.16 456.98 188.16 456.98 187 454 C187.33 453.34 187.66 452.68 188 452 C184.7 452 181.4 452 178 452 C178 448.04 178 444.08 178 440 C175.36 440.33 172.72 440.66 170 441 C169.67 441.99 169.34 442.98 169 444 C168.34 444 167.68 444 167 444 C167 441.36 167 438.72 167 436 C166.34 436 165.68 436 165 436 C165 438.64 165 441.28 165 444 C164.34 444 163.68 444 163 444 C162.67 440.04 162.34 436.08 162 432 C159.69 432.33 157.38 432.66 155 433 C154.67 433.99 154.34 434.98 154 436 C144.9 436.61 135.87 437.13 126.73 436.94 C124.04 437 121.62 437.39 119 438 C119 437.34 119 436.68 119 436 C114.71 436 110.42 436 106 436 C106 433 106 430 106 427 C105.34 426.01 104.68 425.02 104 424 C104 423.01 104 422.02 104 421 C103.01 421 102.02 421 101 421 C101 421.66 101 422.32 101 423 C100.01 422.67 99.02 422.34 98 422 C98 421.34 98 420.68 98 420 C96.68 420 95.36 420 94 420 C94.06 421.92 94.06 421.92 94.12 423.88 C94.25 427.75 94.25 427.75 92 430 C90.68 430 89.36 430 88 430 C88 429.34 88 428.68 88 428 C87.34 428 86.68 428 86 428 C86 426.02 86 424.04 86 422 C85.34 422 84.68 422 84 422 C84 421.34 84 420.68 84 420 C83.01 420 82.02 420 81 420 C77.8 413.8 74.77 407.57 72.06 401.12 C70.02 396.27 67.82 391.56 65.44 386.88 C62.83 381.75 60.54 376.6 58.39 371.27 C56.67 367.22 54.78 363.28 52.88 359.31 C50.16 353.63 47.76 348.06 46 342 C45.34 342 44.68 342 44 342 C43.76 341.2 43.52 340.41 43.27 339.59 C41.41 333.72 39.49 329.08 36 324 C35.24 322.29 34.51 320.55 33.81 318.81 C31.59 313.29 29.13 307.93 26.56 302.56 C26.17 301.74 25.78 300.91 25.37 300.06 C24.6 298.45 23.83 296.83 23.05 295.21 C19.97 288.75 16.98 282.25 14.1 275.7 C10.45 267.39 6.69 259.19 2.54 251.11 C1.47 248.96 0.48 246.76 -0.45 244.54 C-1.79 241.48 -3.33 238.7 -5.02 235.83 C-7.08 231.98 -8.37 227.81 -9.8 223.7 C-11.14 219.97 -12.59 217.11 -15 214 C-15.8 212.04 -16.55 210.06 -17.25 208.06 C-19.47 202.08 -22.21 196.62 -25.35 191.07 C-27.12 187.78 -28.55 184.44 -30 181 C-31.27 178.24 -32.57 175.49 -33.88 172.75 C-45 149.21 -45 149.21 -45 145 C-45.66 145 -46.32 145 -47 145 C-47.43 143.64 -47.43 143.64 -47.88 142.25 C-48.87 139.12 -48.87 139.12 -50.12 136.81 C-51 135 -51 135 -51 132 C-54.63 133.87 -54.63 133.87 -57 137 C-57.66 137 -58.32 137 -59 137 C-59 137.66 -59 138.32 -59 139 C-60.65 140.35 -62.32 141.69 -64 143 C-64.33 143.66 -64.66 144.32 -65 145 C-65.66 145 -66.32 145 -67 145 C-67 145.66 -67 146.32 -67 147 C-70.53 151 -70.53 151 -73 151 C-73.25 151.57 -73.5 152.15 -73.75 152.74 C-75.19 155.34 -76.84 157.07 -78.96 159.15 C-79.74 159.93 -80.52 160.71 -81.33 161.51 C-82.15 162.31 -82.97 163.11 -83.81 163.94 C-84.62 164.74 -85.43 165.53 -86.26 166.36 C-89.04 169.1 -91.82 171.85 -94.61 174.58 C-96.62 176.57 -98.43 178.53 -100.19 180.75 C-102 183 -102 183 -104 184 C-103.35 187.06 -102.32 189.55 -100.88 192.31 C-98.67 196.62 -96.59 200.98 -94.56 205.38 C-91.5 211.98 -88.29 218.5 -85 225 C-84.21 226.58 -83.42 228.17 -82.62 229.75 C-82.22 230.56 -81.82 231.36 -81.4 232.2 C-80.33 234.34 -79.26 236.48 -78.19 238.62 C-77.7 239.59 -77.7 239.59 -77.21 240.59 C-76.52 241.96 -75.84 243.33 -75.15 244.7 C-73.44 248.13 -71.72 251.56 -69.99 254.99 C-66.17 262.57 -62.45 270.19 -58.88 277.9 C-57.36 281.17 -55.81 284.41 -54.13 287.6 C-53.57 288.66 -53.01 289.72 -52.44 290.81 C-51.94 291.73 -51.44 292.64 -50.93 293.58 C-49.88 296.31 -49.85 297.34 -51 300 C-53.25 302.44 -53.25 302.44 -56 305 C-56.74 305.74 -57.49 306.49 -58.25 307.25 C-59.92 308.92 -61.6 310.59 -63.28 312.25 C-64.1 313.05 -64.91 313.86 -65.75 314.69 C-66.53 315.45 -67.31 316.22 -68.11 317.01 C-70.05 318.86 -70.05 318.86 -71 321 C-71.66 321 -72.32 321 -73 321 C-73 321.66 -73 322.32 -73 323 C-74.63 324.73 -76.28 326.36 -78 328 C-81.93 331.84 -85.62 335.66 -89 340 C-91.69 343 -91.69 343 -94 343 C-94.26 343.57 -94.52 344.14 -94.78 344.73 C-96.11 347.21 -97.65 349.13 -99.5 351.25 C-100.41 352.31 -100.41 352.31 -101.34 353.39 C-103 355 -103 355 -105 355 C-105.66 356.32 -106.32 357.64 -107 359 C-107.66 359 -108.32 359 -109 359 C-109.27 359.59 -109.54 360.19 -109.81 360.8 C-111.01 363.02 -112.21 364.42 -114.01 366.17 C-114.6 366.75 -115.19 367.33 -115.8 367.92 C-116.42 368.53 -117.05 369.13 -117.69 369.75 C-122.18 374.16 -126.54 378.58 -130.61 383.39 C-132.62 385.71 -134.83 387.83 -137 390 C-137.66 390.99 -138.32 391.98 -139 393 C-139.66 393 -140.32 393 -141 393 C-141.2 393.53 -141.4 394.06 -141.61 394.61 C-143.6 398.04 -146.34 400.51 -149.19 403.25 C-153.6 407.57 -157.83 411.91 -161.73 416.71 C-163 418 -163 418 -165 418 C-165.38 418.89 -165.38 418.89 -165.77 419.79 C-167.12 422.22 -168.59 423.56 -170.69 425.38 C-173.59 428.11 -173.59 428.11 -174.19 432 C-173.06 434.84 -171.77 437.42 -170.13 440 C-168.84 442.28 -167.86 444.65 -166.85 447.06 C-165.03 451.21 -162.88 455.2 -160.79 459.21 C-158.95 462.8 -157.52 465.95 -157 470 C-156.34 470 -155.68 470 -155 470 C-153.24 473.09 -153 474.23 -153 478 C-152.34 478 -151.68 478 -151 478 C-150.01 481.96 -150.01 481.96 -149 486 C-148.34 486 -147.68 486 -147 486 C-145.11 490.29 -143.42 494.53 -142 499 C-142.66 499.33 -143.32 499.66 -144 500 C-144 498.68 -144 497.36 -144 496 C-144.66 496 -145.32 496 -146 496 C-146 495.34 -146 494.68 -146 494 C-146.66 494 -147.32 494 -148 494 C-148.99 492.02 -148.99 492.02 -150 490 C-150.66 490 -151.32 490 -152 490 C-152 489.34 -152 488.68 -152 488 C-153.98 488 -155.96 488 -158 488 C-158 487.34 -158 486.68 -158 486 C-158.66 486 -159.32 486 -160 486 C-160 486.99 -160 487.98 -160 489 C-159.01 489 -158.02 489 -157 489 C-157.33 489.99 -157.66 490.98 -158 492 C-159.32 491.34 -160.64 490.68 -162 490 C-162 488.35 -162 486.7 -162 485 C-162.76 485.31 -163.53 485.62 -164.31 485.94 C-166.19 486.68 -168.09 487.36 -170 488 C-169.47 493.89 -168.18 498.51 -166 504 C-166 504.66 -166 505.32 -166 506 C-165.34 506 -164.68 506 -164 506 C-164 506.66 -164 507.32 -164 508 C-163.34 508 -162.68 508 -162 508 C-162 510.64 -162 513.28 -162 516 C-161.34 516 -160.68 516 -160 516 C-160 517.32 -160 518.64 -160 520 C-159.34 520 -158.68 520 -158 520 C-158 521.98 -158 523.96 -158 526 C-158.4 525.13 -158.4 525.13 -158.81 524.25 C-159.92 521.99 -159.92 521.99 -161.44 520.19 C-163.05 517.94 -164.07 515.67 -165.12 513.12 C-167.6 507.13 -170.33 501.25 -173.31 495.5 C-175 492 -175 492 -175 489 C-175.66 489 -176.32 489 -177 489 C-177.22 488.36 -177.44 487.71 -177.66 487.05 C-180 480.4 -182.75 474.09 -185.83 467.75 C-187 465 -187 465 -187 462 C-187.66 462 -188.32 462 -189 462 C-189.31 461.16 -189.31 461.16 -189.63 460.3 C-191.66 455.01 -193.98 449.93 -196.56 444.88 C-203 432.23 -203 432.23 -203 427 C-203.66 427 -204.32 427 -205 427 C-205.33 424.69 -205.66 422.38 -206 420 C-205.01 419.67 -204.02 419.34 -203 419 C-203 418.34 -203 417.68 -203 417 C-202.34 417 -201.68 417 -201 417 C-200.61 416.13 -200.61 416.13 -200.21 415.25 C-198.93 412.86 -197.49 411.08 -195.69 409.06 C-195.11 408.41 -194.54 407.77 -193.95 407.1 C-191.69 404.67 -189.36 402.33 -187 400 C-184.37 397.4 -181.75 394.79 -179.12 392.19 C-178.44 391.51 -177.76 390.84 -177.06 390.15 C-172.49 385.6 -168.2 380.88 -164 376 C-162.08 373.82 -160.14 371.66 -158.19 369.5 C-157.47 368.7 -157.47 368.7 -156.74 367.88 C-153.23 364 -153.23 364 -151 364 C-150.66 363.2 -150.66 363.2 -150.31 362.38 C-147.98 358.15 -144.68 354.15 -141 351 C-140.34 351 -139.68 351 -139 351 C-139 350.34 -139 349.68 -139 349 C-138.34 349 -137.68 349 -137 349 C-136.77 348.44 -136.55 347.89 -136.31 347.32 C-134.62 344.33 -132.46 342.31 -130 339.94 C-127.32 337.35 -125.07 335.11 -123 332 C-122.34 332 -121.68 332 -121 332 C-120.78 331.46 -120.57 330.91 -120.35 330.35 C-118.54 327.19 -116.05 324.87 -113.44 322.38 C-109.77 319.04 -109.77 319.04 -107 315 C-106.34 315 -105.68 315 -105 315 C-105 314.34 -105 313.68 -105 313 C-104.34 313 -103.68 313 -103 313 C-102.74 312.41 -102.49 311.83 -102.22 311.23 C-100.89 308.81 -99.43 307.27 -97.44 305.38 C-94.86 302.95 -94.86 302.95 -93 300 C-92.34 300 -91.68 300 -91 300 C-91 299.34 -91 298.68 -91 298 C-89 296.38 -89 296.38 -87 295 C-87.58 290.51 -88.75 286.87 -90.62 282.75 C-91.14 281.59 -91.67 280.42 -92.21 279.22 C-92.76 278 -93.32 276.78 -93.88 275.56 C-94.96 273.17 -96.04 270.77 -97.12 268.38 C-99.08 264.04 -99.08 264.04 -101.05 259.7 C-102.29 256.92 -103 255.09 -103 252 C-103.66 252 -104.32 252 -105 252 C-105.31 251.17 -105.63 250.33 -105.95 249.47 C-109.71 239.6 -113.95 230.08 -118.43 220.52 C-120.38 216.36 -122.26 212.18 -124.11 207.97 C-125.01 205.97 -126 204.02 -127 202.06 C-128.9 198.32 -130.47 194.5 -131.98 190.59 C-132.68 188.81 -133.4 187.04 -134.14 185.28 C-134.51 184.4 -134.87 183.53 -135.25 182.62 C-135.59 181.83 -135.92 181.04 -136.27 180.23 C-137 178 -137 178 -137 174 C-136.34 174 -135.68 174 -135 174 C-134.74 173.41 -134.49 172.83 -134.22 172.23 C-132.89 169.81 -131.43 168.27 -129.44 166.38 C-126.86 163.95 -126.86 163.95 -125 161 C-124.34 161 -123.68 161 -123 161 C-123 160.34 -123 159.68 -123 159 C-122.34 159 -121.68 159 -121 159 C-121 158.34 -121 157.68 -121 157 C-119.37 155.3 -117.7 153.64 -116 152 C-114.12 150.02 -112.28 148.01 -110.44 146 C-109.97 145.49 -109.5 144.98 -109.02 144.46 C-106.83 142.08 -104.76 139.69 -102.79 137.12 C-101 135 -101 135 -99 135 C-99 134.34 -99 133.68 -99 133 C-98.34 133 -97.68 133 -97 133 C-96.79 132.46 -96.59 131.93 -96.38 131.38 C-94.44 128.03 -91.15 123 -87 123 C-86.81 122.32 -86.63 121.64 -86.44 120.94 C-84.75 117.5 -82.67 115.51 -79.93 112.89 C-77.41 110.42 -75.15 107.78 -72.87 105.09 C-71.94 104.06 -71.94 104.06 -71 103 C-70.28 101.98 -69.55 100.96 -68.81 99.91 C-63.83 95 -56.71 96.26 -50.2 96.41 C-48.92 96.42 -47.65 96.43 -46.34 96.43 C-41.6 96.46 -36.86 96.55 -32.12 96.62 C-21.52 96.75 -10.92 96.87 0 97 C0 64.99 0 32.98 0 0 Z " fill="#EE85DB" transform="translate(270,124)"/>
<path d="M0 0 C3.86 1.29 3.85 2.28 5.38 5.94 C6.92 9.51 8.48 13.03 10.25 16.5 C12.62 21.19 14.88 25.93 17.12 30.69 C21 38.9 24.91 47.09 28.83 55.28 C31.15 60.13 33.47 64.99 35.78 69.85 C36.23 70.79 36.67 71.73 37.14 72.7 C37.97 74.46 38.81 76.23 39.65 78 C42.61 84.23 45.68 90.41 48.81 96.56 C51.04 101.01 53.12 105.54 55.21 110.06 C57.91 115.87 60.79 121.57 63.71 127.27 C65 130 65 130 65 132 C68.12 130.69 68.12 130.69 70 128 C70.66 128 71.32 128 72 128 C72.34 127.13 72.34 127.13 72.69 126.25 C74.35 123.4 76.42 122.06 79 120 C80 118.88 80.98 117.74 81.95 116.59 C86.88 110.88 92.27 105.62 97.62 100.31 C98.66 99.28 99.69 98.25 100.73 97.22 C102.63 95.33 104.53 93.44 106.43 91.55 C108.96 89.04 111.48 86.52 114 84 C114.66 83.34 115.32 82.68 116 82 C115.66 77.78 114.48 74.47 112.6 70.7 C112.12 69.72 111.64 68.74 111.15 67.74 C110.39 66.23 110.39 66.23 109.62 64.69 C106.24 57.88 103.22 51.28 101 44 C101.66 44 102.32 44 103 44 C103 44.66 103 45.32 103 46 C103.66 46 104.32 46 105 46 C105 47.98 105 49.96 105 52 C105.66 52 106.32 52 107 52 C107 52.66 107 53.32 107 54 C108.65 53.34 110.3 52.68 112 52 C112.33 49.36 112.66 46.72 113 44 C117.5 44 117.5 44 120 47 C119.67 46.01 119.34 45.02 119 44 C120.32 44.33 121.64 44.66 123 45 C123 45.99 123 46.98 123 48 C123.66 48.33 124.32 48.66 125 49 C125.66 49.33 126.32 49.66 127 50 C126.34 53.3 125.68 56.6 125 60 C129.29 60 133.58 60 138 60 C138 60.66 138 61.32 138 62 C139.02 61.51 139.02 61.51 140.06 61.01 C143.55 59.81 146.36 59.77 150.05 59.8 C150.71 59.81 151.37 59.81 152.05 59.81 C154.14 59.82 156.22 59.85 158.31 59.88 C159.74 59.89 161.16 59.89 162.58 59.9 C166.05 59.92 169.53 59.96 173 60 C173.33 58.68 173.66 57.36 174 56 C176.31 56 178.62 56 181 56 C182.33 59.98 182.07 63.85 182 68 C182.66 68 183.32 68 184 68 C184 65.36 184 62.72 184 60 C184.66 60 185.32 60 186 60 C186 62.64 186 65.28 186 68 C186.66 68 187.32 68 188 68 C188.33 66.68 188.66 65.36 189 64 C191.64 64 194.28 64 197 64 C197 67.96 197 71.92 197 76 C200.3 76 203.6 76 207 76 C208.12 83.63 208.12 83.63 207 87 C208.32 87.33 209.64 87.66 211 88 C211.37 84.71 211.37 84.71 210 82 C209.96 80 209.96 78 210 76 C210.66 76.33 211.32 76.66 212 77 C212.33 74.69 212.66 72.38 213 70 C214.32 70 215.64 70 217 70 C217 70.66 217 71.32 217 72 C217.66 72 218.32 72 219 72 C219 73.32 219 74.64 219 76 C220.98 75.67 222.96 75.34 225 75 C225 73.02 225 71.04 225 69 C223.02 68.67 221.04 68.34 219 68 C218.67 67.01 218.34 66.02 218 65 C221.49 63.84 224.21 64.01 227.84 64.16 C230.3 64.16 230.3 64.16 233 62 C233 61.34 233 60.68 233 60 C238.91 57.58 244.91 56.97 251 59 C251 58.34 251 57.68 251 57 C250.01 56.67 249.02 56.34 248 56 C248.33 55.34 248.66 54.68 249 54 C251.64 54 254.28 54 257 54 C257 54.66 257 55.32 257 56 C257.66 56 258.32 56 259 56 C259 55.34 259 54.68 259 54 C259.66 54 260.32 54 261 54 C261.06 53.38 261.12 52.76 261.19 52.12 C262.34 49.1 264.05 49.03 267 48 C267.33 47.34 267.66 46.68 268 46 C268.33 46.66 268.66 47.32 269 48 C269.66 48 270.32 48 271 48 C271 48.66 271 49.32 271 50 C271.66 50 272.32 50 273 50 C273 50.66 273 51.32 273 52 C274.32 52 275.64 52 277 52 C277 54.64 277 57.28 277 60 C278.32 60 279.64 60 281 60 C281 60.66 281 61.32 281 62 C282.32 62 283.64 62 285 62 C285 62.99 285 63.98 285 65 C282.29 66.35 279.99 66.07 277 66 C277 66.66 277 67.32 277 68 C279.64 68 282.28 68 285 68 C285 68.66 285 69.32 285 70 C282.36 70 279.72 70 277 70 C277 71.32 277 72.64 277 74 C279.64 74 282.28 74 285 74 C285 74.66 285 75.32 285 76 C287.64 76 290.28 76 293 76 C293 72.04 293 68.08 293 64 C298.28 64 303.56 64 309 64 C309 67.96 309 71.92 309 76 C311.31 76 313.62 76 316 76 C315.67 76.66 315.34 77.32 315 78 C315.66 78.33 316.32 78.66 317 79 C317.33 78.34 317.66 77.68 318 77 C318.8 76.77 319.61 76.55 320.44 76.31 C324.26 74.36 324.25 72.09 325 68 C325 66.91 325 65.81 325 64.69 C325 62 325 62 327 60 C328.99 59.76 328.99 59.76 331.45 59.77 C332.37 59.77 333.29 59.77 334.24 59.77 C335.24 59.78 336.23 59.79 337.26 59.8 C338.28 59.81 339.29 59.81 340.34 59.81 C343.6 59.82 346.86 59.85 350.12 59.88 C352.33 59.89 354.54 59.89 356.75 59.9 C362.16 59.92 367.58 59.96 373 60 C373 59.32 373 58.65 373 57.95 C373 46 373 46 374.61 45.01 C379.14 43.1 384.16 43.89 389 44 C389 49.28 389 54.56 389 60 C390.32 60 391.64 60 393 60 C393 63.3 393 66.6 393 70 C393.66 70 394.32 70 395 70 C395 69.34 395 68.68 395 68 C395.66 68 396.32 68 397 68 C397.66 66.02 398.32 64.04 399 62 C399.66 62 400.32 62 401 62 C401 61.34 401 60.68 401 60 C402.32 60.33 403.64 60.66 405 61 C404.62 61.55 404.25 62.09 403.86 62.65 C401.25 66.5 398.78 70.32 396.62 74.44 C393.75 79.74 390.15 84.61 386 89 C385.34 89 384.68 89 384 89 C383.74 89.57 383.48 90.14 383.22 90.73 C381.89 93.21 380.35 95.13 378.5 97.25 C377.89 97.96 377.28 98.66 376.66 99.39 C375 101 375 101 373 101 C372.78 101.56 372.56 102.11 372.33 102.69 C370.58 105.73 368.36 107.66 365.75 110 C364.82 110.85 363.88 111.69 362.92 112.56 C355.21 119 355.21 119 352 119 C352 119.66 352 120.32 352 121 C350.98 121.57 349.97 122.14 348.92 122.72 C347.53 123.5 346.14 124.28 344.75 125.06 C344.03 125.47 343.3 125.87 342.56 126.29 C339.14 128.21 335.74 130.14 332.37 132.16 C331.32 132.79 330.27 133.41 329.19 134.06 C327.79 134.92 327.79 134.92 326.36 135.79 C324 137 324 137 321 137 C321 137.66 321 138.32 321 139 C319.96 139.45 318.92 139.89 317.85 140.36 C316.44 140.97 315.03 141.58 313.62 142.19 C312.89 142.51 312.16 142.82 311.4 143.15 C307.41 144.9 303.49 146.72 299.62 148.75 C295.58 150.84 291.53 152.17 287.13 153.32 C284.74 153.98 284.74 153.98 282 156 C280.11 156.64 280.11 156.64 277.97 157.18 C277.18 157.39 276.39 157.59 275.57 157.81 C274.74 158.01 273.91 158.22 273.06 158.44 C271.87 158.74 271.87 158.74 270.66 159.06 C269 159.48 267.33 159.91 265.66 160.32 C263.85 160.79 262.03 161.26 260.22 161.75 C252.2 163.89 244.17 165.09 235.94 166.12 C234.65 166.29 233.37 166.46 232.04 166.64 C228.36 167.11 224.69 167.58 221 168 C220.31 168.08 219.61 168.17 218.89 168.26 C209.56 169.26 200.23 169.13 190.85 169.11 C188.93 169.11 187.01 169.11 185.08 169.11 C179.89 169.11 174.7 169.11 169.51 169.1 C164.07 169.1 158.64 169.09 153.2 169.09 C142.92 169.09 132.64 169.08 122.36 169.07 C110.65 169.06 98.94 169.06 87.23 169.05 C63.15 169.04 39.08 169.02 15 169 C15 154.48 15 139.96 15 125 C14.34 125 13.68 125 13 125 C12.63 125.87 12.63 125.87 12.25 126.75 C10.82 129.33 9.22 131.06 7 133 C6.34 133 5.68 133 5 133 C4.67 134.32 4.34 135.64 4 137 C2.68 137.33 1.36 137.66 0 138 C0 138.66 0 139.32 0 140 C-1.39 141.33 -1.39 141.33 -3.25 142.81 C-6.83 145.77 -9.9 148.8 -12 153 C-12.99 153.33 -13.98 153.66 -15 154 C-15.82 154.83 -16.65 155.65 -17.5 156.5 C-20 159 -20 159 -23 160 C-23.29 160.58 -23.58 161.15 -23.88 161.75 C-26.29 166.58 -28.99 169.26 -34.44 169.6 C-36.24 169.62 -38.04 169.6 -39.84 169.57 C-40.82 169.57 -41.81 169.57 -42.83 169.57 C-46.08 169.57 -49.33 169.53 -52.58 169.49 C-54.84 169.48 -57.1 169.47 -59.35 169.47 C-65.29 169.45 -71.23 169.4 -77.16 169.34 C-83.22 169.29 -89.28 169.27 -95.34 169.24 C-107.23 169.19 -119.11 169.11 -131 169 C-131.49 167.86 -131.99 166.71 -132.5 165.54 C-133.14 164.04 -133.79 162.55 -134.44 161.06 C-134.76 160.31 -135.09 159.55 -135.42 158.78 C-136.8 155.13 -136.8 155.13 -139 152 C-139.14 149.33 -139.04 146.68 -139 144 C-139.66 144 -140.32 144 -141 144 C-141 142.68 -141 141.36 -141 140 C-141.66 140 -142.32 140 -143 140 C-143 137.36 -143 134.72 -143 132 C-143.66 132 -144.32 132 -145 132 C-145 131.34 -145 130.68 -145 130 C-145.66 130 -146.32 130 -147 130 C-149.81 123.87 -151.95 118.79 -151 112 C-148.29 108.9 -147.22 109 -143 109 C-143 110.65 -143 112.3 -143 114 C-141.68 114.33 -140.36 114.66 -139 115 C-138.5 114.01 -138.5 114.01 -138 113 C-138.99 113 -139.98 113 -141 113 C-141 112.01 -141 111.02 -141 110 C-140.34 110 -139.68 110 -139 110 C-139 110.66 -139 111.32 -139 112 C-137.02 112 -135.04 112 -133 112 C-133 112.66 -133 113.32 -133 114 C-131.68 114.33 -130.36 114.66 -129 115 C-129 115.99 -129 116.98 -129 118 C-128.34 118 -127.68 118 -127 118 C-127 118.66 -127 119.32 -127 120 C-126.34 120 -125.68 120 -125 120 C-124.34 120.99 -123.68 121.98 -123 123 C-119.38 122.43 -117.83 121.11 -115.38 118.44 C-112.21 115 -112.21 115 -110 115 C-109.62 114.13 -109.62 114.13 -109.23 113.23 C-107.87 110.76 -106.36 109.19 -104.31 107.25 C-101.52 104.53 -98.86 101.77 -96.31 98.81 C-92.04 93.87 -87.49 89.49 -82.45 85.33 C-80.87 84.04 -80.87 84.04 -80 82 C-79.34 82 -78.68 82 -78 82 C-77.5 80.51 -77.5 80.51 -77 79 C-76.34 79 -75.68 79 -75 79 C-74.69 78.2 -74.69 78.2 -74.38 77.38 C-72.44 74.03 -69.15 69 -65 69 C-64.75 68.44 -64.5 67.89 -64.25 67.31 C-62.16 63.44 -59.34 59.88 -56 57 C-55.34 57 -54.68 57 -54 57 C-54 56.34 -54 55.68 -54 55 C-53.34 55 -52.68 55 -52 55 C-51.67 54.01 -51.34 53.02 -51 52 C-48.44 49 -48.44 49 -46 49 C-46 48.34 -46 47.68 -46 47 C-44.5 45.56 -44.5 45.56 -42.56 44 C-39.85 41.85 -39.85 41.85 -38 39 C-37.34 39 -36.68 39 -36 39 C-35.63 38.07 -35.63 38.07 -35.25 37.12 C-33.76 34.6 -32.56 34.28 -30 33 C-29.71 32.42 -29.42 31.85 -29.12 31.25 C-27.46 27.91 -24.89 25.35 -22 23 C-21.34 23 -20.68 23 -20 23 C-19.74 22.41 -19.48 21.83 -19.21 21.22 C-17.92 18.86 -16.55 17.34 -14.63 15.47 C-13.97 14.82 -13.32 14.18 -12.64 13.51 C-11.95 12.85 -11.27 12.18 -10.56 11.5 C-9.21 10.18 -7.85 8.86 -6.5 7.53 C-5.9 6.95 -5.3 6.37 -4.69 5.77 C-2.95 3.95 -1.47 2.04 0 0 Z " fill="#EF79BA" transform="translate(251,500)"/>
<path d="M0 0 C1.18 0.1 2.36 0.2 3.57 0.31 C4.48 0.39 5.38 0.48 6.31 0.56 C6.31 1.22 6.31 1.88 6.31 2.56 C8.95 2.56 11.59 2.56 14.31 2.56 C14.31 3.22 14.31 3.88 14.31 4.56 C15.63 4.56 16.95 4.56 18.31 4.56 C18.31 5.22 18.31 5.88 18.31 6.56 C19.62 6.65 20.92 6.74 22.27 6.82 C37.78 8 48.48 11.97 61.61 20.47 C63.36 21.59 65.13 22.7 66.89 23.8 C73.23 27.76 79.23 31.94 85 36.72 C87.3 38.55 89.66 40.16 92.12 41.75 C95.64 44.04 98.44 46.47 101.31 49.56 C102.64 50.9 103.98 52.23 105.31 53.56 C108.31 56.56 111.31 59.56 114.31 62.56 C115.7 63.89 115.7 63.89 117.12 65.25 C119.31 67.56 119.31 67.56 119.31 69.56 C119.97 69.56 120.63 69.56 121.31 69.56 C121.31 70.22 121.31 70.88 121.31 71.56 C121.97 71.56 122.63 71.56 123.31 71.56 C127.31 75.92 127.31 75.92 127.31 79.56 C127.97 79.56 128.63 79.56 129.31 79.56 C129.31 80.22 129.31 80.88 129.31 81.56 C129.97 81.56 130.63 81.56 131.31 81.56 C133 83.83 133 83.83 134.88 86.81 C135.5 87.79 136.12 88.76 136.75 89.77 C138.07 92.13 138.85 93.92 139.31 96.56 C139.97 96.56 140.63 96.56 141.31 96.56 C141.87 97.72 142.43 98.87 143 100.06 C144.47 103 146.04 105.8 147.81 108.56 C150.28 112.44 152.31 116.43 154.31 120.56 C155.14 122.23 155.98 123.9 156.81 125.56 C157.24 126.42 157.66 127.27 158.1 128.15 C158.82 129.58 159.55 131 160.31 132.41 C163.74 138.88 166.12 145.8 168.62 152.67 C169.21 154.28 169.81 155.9 170.41 157.52 C177.11 175.65 181.9 193.36 184.31 212.56 C184.42 213.4 184.53 214.24 184.64 215.1 C190.72 265.28 183.83 313.21 169.62 361.38 C169.39 362.17 169.16 362.97 168.92 363.79 C162.55 385.32 162.55 385.32 158.31 389.56 C158.46 388.57 158.6 387.58 158.75 386.56 C159.32 382.57 159.82 378.57 160.31 374.56 C159.65 374.56 158.99 374.56 158.31 374.56 C158.31 372.58 158.31 370.6 158.31 368.56 C158.97 368.23 159.63 367.9 160.31 367.56 C159.98 365.58 159.65 363.6 159.31 361.56 C157.99 361.23 156.67 360.9 155.31 360.56 C155.31 359.9 155.31 359.24 155.31 358.56 C154.75 358.89 154.19 359.22 153.61 359.55 C151.04 360.68 149.34 360.77 146.56 360.69 C145.76 360.67 144.96 360.65 144.14 360.63 C143.24 360.6 143.24 360.6 142.31 360.56 C142.31 360.23 142.31 359.9 142.31 359.56 C144.95 359.56 147.59 359.56 150.31 359.56 C150.31 358.9 150.31 358.24 150.31 357.56 C149.65 357.89 148.99 358.22 148.31 358.56 C146.31 358.6 144.31 358.61 142.31 358.56 C142.31 356.91 142.31 355.26 142.31 353.56 C141.32 353.23 140.33 352.9 139.31 352.56 C139.64 352.23 139.97 351.9 140.31 351.56 C138.99 350.9 137.67 350.24 136.31 349.56 C136.31 348.9 136.31 348.24 136.31 347.56 C135.65 347.56 134.99 347.56 134.31 347.56 C134.64 348.88 134.97 350.2 135.31 351.56 C134.35 352 134.35 352 133.38 352.44 C131.16 353.39 131.16 353.39 130.31 355.56 C129.32 355.23 128.33 354.9 127.31 354.56 C126.16 356.87 125.78 359.03 125.31 361.56 C124.32 361.56 123.33 361.56 122.31 361.56 C122.31 360.57 122.31 359.58 122.31 358.56 C121.65 359.22 120.99 359.88 120.31 360.56 C119.65 361.22 118.99 361.88 118.31 362.56 C118.31 361.9 118.31 361.24 118.31 360.56 C110.39 360.56 102.47 360.56 94.31 360.56 C93.31 353.56 93.31 353.56 94.31 350.56 C94.35 348.9 94.36 347.23 94.31 345.56 C91.67 345.56 89.03 345.56 86.31 345.56 C86.64 346.22 86.97 346.88 87.31 347.56 C88.3 347.23 89.29 346.9 90.31 346.56 C90.31 347.22 90.31 347.88 90.31 348.56 C88.66 349.22 87.01 349.88 85.31 350.56 C85.31 349.57 85.31 348.58 85.31 347.56 C84.65 347.56 83.99 347.56 83.31 347.56 C82.98 346.24 82.65 344.92 82.31 343.56 C83.63 343.23 84.95 342.9 86.31 342.56 C84.61 342.59 84.61 342.59 82.88 342.62 C79.31 342.56 79.31 342.56 78.31 341.56 C77.98 342.22 77.65 342.88 77.31 343.56 C76.31 338.81 76.31 338.81 76.31 336.56 C74.99 336.23 73.67 335.9 72.31 335.56 C71.98 337.87 71.65 340.18 71.31 342.56 C70.65 342.56 69.99 342.56 69.31 342.56 C69.31 343.22 69.31 343.88 69.31 344.56 C71.62 344.23 73.93 343.9 76.31 343.56 C75.98 345.21 75.65 346.86 75.31 348.56 C76.3 348.89 77.29 349.22 78.31 349.56 C78.64 347.91 78.97 346.26 79.31 344.56 C80.3 344.89 81.29 345.22 82.31 345.56 C82.69 352.31 82.69 352.31 79.31 354.56 C78.73 356.76 78.73 356.76 78.62 359.19 C78.56 360 78.49 360.82 78.43 361.66 C78.39 362.29 78.35 362.92 78.31 363.56 C76.33 363.23 74.35 362.9 72.31 362.56 C72.31 361.9 72.31 361.24 72.31 360.56 C69.93 361.14 67.65 361.78 65.31 362.56 C65.31 361.9 65.31 361.24 65.31 360.56 C64.65 360.56 63.99 360.56 63.31 360.56 C63.68 357.27 63.94 355.91 66.44 353.62 C69.08 350.72 68.44 349.17 67.31 345.56 C66.65 345.23 65.99 344.9 65.31 344.56 C64.98 345.22 64.65 345.88 64.31 346.56 C63.65 346.89 62.99 347.22 62.31 347.56 C61.98 348.55 61.65 349.54 61.31 350.56 C60.24 350.69 59.17 350.81 58.06 350.94 C54.93 351.46 52.98 351.96 50.31 353.56 C50.97 351.91 51.63 350.26 52.31 348.56 C50.99 348.56 49.67 348.56 48.31 348.56 C48.64 349.88 48.97 351.2 49.31 352.56 C48.32 352.56 47.33 352.56 46.31 352.56 C46.02 353.47 45.74 354.38 45.44 355.31 C44.55 357.88 43.6 360.18 42.31 362.56 C41.65 362.56 40.99 362.56 40.31 362.56 C40.31 364.54 40.31 366.52 40.31 368.56 C39.65 368.56 38.99 368.56 38.31 368.56 C38.31 369.22 38.31 369.88 38.31 370.56 C37.65 370.56 36.99 370.56 36.31 370.56 C36.64 373.2 36.97 375.84 37.31 378.56 C36.65 378.56 35.99 378.56 35.31 378.56 C35.31 377.9 35.31 377.24 35.31 376.56 C33.99 376.56 32.67 376.56 31.31 376.56 C31.61 375.97 31.9 375.39 32.21 374.78 C33.15 372.88 34.08 370.97 35 369.06 C36.17 366.69 37.37 364.47 38.81 362.25 C53.44 339.46 61.36 307 61.52 280.02 C61.52 279.23 61.53 278.43 61.54 277.61 C61.55 275.06 61.56 272.5 61.56 269.94 C61.56 269.06 61.57 268.19 61.57 267.29 C61.56 254.61 61.05 242.3 58.73 229.81 C58.32 227.61 57.96 225.41 57.62 223.21 C56.95 218.97 56.16 214.77 55.31 210.56 C55.07 209.36 55.07 209.36 54.82 208.13 C50.18 185.74 42.65 163.31 27.87 145.46 C26.34 143.6 24.98 141.68 23.62 139.69 C21.62 136.98 20.01 135.46 17.31 133.56 C17.31 132.9 17.31 132.24 17.31 131.56 C16.65 131.56 15.99 131.56 15.31 131.56 C13.62 129.92 11.96 128.25 10.31 126.56 C9.22 125.66 8.11 124.76 7 123.88 C4.31 121.56 4.31 121.56 4.31 119.56 C3.63 119.34 2.95 119.11 2.25 118.88 C-0.88 117.48 -3.33 115.75 -6.04 113.68 C-7.81 112.37 -7.81 112.37 -10.69 111.56 C-10.69 110.9 -10.69 110.24 -10.69 109.56 C-11.47 109.42 -12.25 109.27 -13.06 109.12 C-15.69 108.56 -15.69 108.56 -17.69 107.56 C-17.69 106.57 -17.69 105.58 -17.69 104.56 C-22.26 103 -26.88 101.6 -31.52 100.25 C-33.69 99.56 -33.69 99.56 -35.69 98.56 C-35.69 97.9 -35.69 97.24 -35.69 96.56 C-38.33 96.56 -40.97 96.56 -43.69 96.56 C-43.69 95.9 -43.69 95.24 -43.69 94.56 C-41.71 94.56 -39.73 94.56 -37.69 94.56 C-37.69 93.9 -37.69 93.24 -37.69 92.56 C-36.37 92.56 -35.05 92.56 -33.69 92.56 C-33.69 91.9 -33.69 91.24 -33.69 90.56 C-36.33 90.56 -38.97 90.56 -41.69 90.56 C-43.11 87.72 -43 85.71 -42.69 82.56 C-40.13 79.06 -37.96 78.04 -33.69 77.56 C-33.77 76.1 -33.88 74.64 -34 73.19 C-34.06 72.38 -34.12 71.56 -34.18 70.73 C-34.52 68.18 -34.52 68.18 -37.69 66.56 C-39.88 64.37 -40.34 63.58 -40.69 60.56 C-39.43 56.28 -37.71 53.57 -33.69 51.56 C-33.69 50.57 -33.69 49.58 -33.69 48.56 C-34.35 48.23 -35.01 47.9 -35.69 47.56 C-35.03 47.56 -34.37 47.56 -33.69 47.56 C-33.69 46.9 -33.69 46.24 -33.69 45.56 C-36.33 45.56 -38.97 45.56 -41.69 45.56 C-41.69 44.9 -41.69 44.24 -41.69 43.56 C-40.37 43.56 -39.05 43.56 -37.69 43.56 C-37.36 42.57 -37.03 41.58 -36.69 40.56 C-35.7 39.9 -34.71 39.24 -33.69 38.56 C-33.44 34.98 -33.44 34.98 -33.69 31.56 C-36.33 31.56 -38.97 31.56 -41.69 31.56 C-41.71 29.08 -41.73 26.6 -41.75 24.12 C-41.76 23.06 -41.76 23.06 -41.78 21.98 C-41.8 16.68 -41.8 16.68 -40.69 15.56 C-36.04 15.21 -36.04 15.21 -33.69 17.56 C-33.69 18.55 -33.69 19.54 -33.69 20.56 C-30.72 20.56 -27.75 20.56 -24.69 20.56 C-24.03 19.24 -23.37 17.92 -22.69 16.56 C-21.04 16.56 -19.39 16.56 -17.69 16.56 C-17.69 13.26 -17.69 9.96 -17.69 6.56 C-13.07 6.23 -8.45 5.9 -3.69 5.56 C-3.69 4.57 -3.69 3.58 -3.69 2.56 C-5.67 2.56 -7.65 2.56 -9.69 2.56 C-9.69 1.9 -9.69 1.24 -9.69 0.56 C-6.14 -0.62 -3.71 -0.33 0 0 Z " fill="#EE88E1" transform="translate(513.6875,135.4375)"/>
<path d="M0 0 C53.25 -0.08 53.25 -0.08 75.72 -0.1 C91.18 -0.11 106.64 -0.12 122.1 -0.15 C133.36 -0.17 144.63 -0.18 155.89 -0.19 C161.84 -0.19 167.79 -0.2 173.75 -0.21 C227.32 -0.34 278.49 2.43 329 22 C329.96 22.36 330.92 22.72 331.91 23.09 C337.58 25.27 342.78 27.89 348 31 C348.99 31.59 349.98 32.18 351 32.78 C378.91 49.67 405.04 72.05 425 98 C425.68 98.82 426.36 99.65 427.06 100.5 C437.32 112.93 444.66 127.05 451.73 141.45 C452.66 143.32 453.62 145.19 454.58 147.05 C459.24 156.15 463.24 165.45 467.13 174.9 C467.91 176.78 468.73 178.64 469.55 180.5 C471.25 184.61 472.65 188.77 474 193 C474.27 193.83 474.54 194.66 474.81 195.52 C485.2 228.04 489.23 259 489.25 293.06 C489.25 294.17 489.25 295.27 489.25 296.4 C489.24 314.47 488.44 332.09 486 350 C485.84 351.22 485.68 352.43 485.51 353.69 C484.02 364.9 482.34 375.95 479.71 386.96 C478.92 390.32 478.24 393.7 477.57 397.08 C474.69 411.51 470.4 424.53 464.31 437.94 C463.58 439.55 463.58 439.55 462.83 441.19 C459.26 448.87 459.26 448.87 457 450 C454.88 449.56 454.88 449.56 453 449 C452.67 449.99 452.34 450.98 452 452 C451 450 451 450 452 448 C451.01 448 450.02 448 449 448 C449 447.34 449 446.68 449 446 C448.01 445.67 447.02 445.34 446 445 C446 443 446 443 449 441 C447.35 441 445.7 441 444 441 C444.33 442.98 444.66 444.96 445 447 C444.01 447.66 443.02 448.32 442 449 C442.16 449.95 442.33 450.9 442.5 451.88 C443 455 443 455 443 457 C442.01 457.66 441.02 458.32 440 459 C440 460.32 440 461.64 440 463 C439.34 463 438.68 463 438 463 C438 463.66 438 464.32 438 465 C433.25 466.12 433.25 466.12 431 465 C430.59 462.71 430.59 462.71 430.38 459.94 C430.3 459.02 430.23 458.1 430.15 457.15 C430.1 456.44 430.05 455.73 430 455 C429.34 455 428.68 455 428 455 C427.67 455.66 427.34 456.32 427 457 C427 456.34 427 455.68 427 455 C426.34 455 425.68 455 425 455 C424.86 455.91 424.71 456.82 424.56 457.75 C424.14 460.21 423.65 462.59 423 465 C421.35 465 419.7 465 418 465 C418.97 461.46 420.18 458.62 422.25 455.62 C425.97 449.91 427.98 443.41 430.27 437.03 C431.37 433.97 432.53 430.92 433.69 427.88 C434.06 426.88 434.44 425.89 434.82 424.87 C436 422 436 422 437.47 419.23 C439.44 415.08 440.6 410.86 441.81 406.44 C442.34 404.54 442.87 402.65 443.39 400.75 C443.66 399.79 443.93 398.83 444.2 397.84 C444.95 395.19 445.72 392.54 446.51 389.9 C459.83 345.17 463.8 299.39 458 253 C457.9 252.16 457.81 251.32 457.71 250.45 C455.29 229.75 449.55 209.37 441.36 190.22 C440.36 187.86 439.41 185.51 438.49 183.12 C438.23 182.46 437.97 181.79 437.71 181.11 C436.98 179.22 436.25 177.33 435.53 175.45 C434 171.99 432.14 169.1 430 166 C429.32 164.4 428.63 162.8 427.98 161.19 C425.22 155.01 421.84 149.02 418.32 143.25 C417.07 141.12 416.45 139.41 416 137 C415.34 137 414.68 137 414 137 C413.13 135.45 413.13 135.45 412.25 133.88 C410.84 131.4 409.37 129.03 407.75 126.69 C406 124 406 124 406 122 C405.34 122 404.68 122 404 122 C404 121.34 404 120.68 404 120 C403.34 120 402.68 120 402 120 C400.22 117.36 399.01 115.03 398 112 C397.34 112 396.68 112 396 112 C396 111.34 396 110.68 396 110 C395.34 110 394.68 110 394 110 C393.77 109.42 393.55 108.84 393.31 108.25 C391.65 105.4 389.61 104 387 102 C385.31 100.36 383.65 98.69 382 97 C380.63 95.6 379.25 94.21 377.88 92.81 C376.88 91.8 376.88 91.8 375.87 90.77 C373.92 88.82 373.92 88.82 371 87 C371 86.34 371 85.68 371 85 C370.44 84.74 369.88 84.47 369.3 84.2 C361.4 80.07 354.37 74.05 347.27 68.69 C343.5 65.92 339.61 63.6 335.49 61.38 C333.07 60.04 330.74 58.59 328.39 57.12 C323.13 53.95 317.76 51.67 312 49.56 C310.98 49.18 309.95 48.8 308.9 48.41 C294.11 43.08 278.86 38.73 263.29 36.43 C261 36 261 36 260 35 C230.29 29.78 200.17 29.68 170.12 29.6 C165.2 29.58 160.29 29.55 155.38 29.53 C146.13 29.48 136.88 29.44 127.63 29.41 C115.1 29.36 102.56 29.3 90.03 29.24 C70.35 29.15 50.68 29.08 31 29 C31 61.01 31 93.02 31 126 C-1.06 126.06 -1.06 126.06 -11.15 126.03 C-13.8 126.05 -16.45 126.07 -19.1 126.1 C-19.78 126.09 -20.46 126.08 -21.16 126.07 C-30.1 125.99 -35.75 126.3 -41 134 C-43.97 138 -43.97 138 -46 138 C-46.26 138.58 -46.52 139.16 -46.79 139.75 C-48.07 142.14 -49.51 143.92 -51.31 145.94 C-52.25 146.99 -52.25 146.99 -53.2 148.05 C-55.4 150.44 -57.71 152.71 -60 155 C-61.58 156.87 -63.13 158.74 -64.67 160.64 C-66 162 -66 162 -68 162 C-68 162.66 -68 163.32 -68 164 C-68.66 164 -69.32 164 -70 164 C-70.24 164.57 -70.49 165.15 -70.74 165.74 C-72.22 168.4 -73.97 170.1 -76.19 172.19 C-80.09 175.98 -83.4 179.94 -86.59 184.35 C-88 186 -88 186 -90 186 C-90 186.66 -90 187.32 -90 188 C-90.66 188 -91.32 188 -92 188 C-92 188.66 -92 189.32 -92 190 C-92.66 190 -93.32 190 -94 190 C-94.26 190.59 -94.51 191.17 -94.78 191.77 C-96.11 194.19 -97.57 195.73 -99.56 197.62 C-102.14 200.05 -102.14 200.05 -104 203 C-104.66 203 -105.32 203 -106 203 C-101.87 215.35 -101.87 215.35 -96.41 227.15 C-94.41 231.18 -92.72 235.34 -91 239.5 C-88.55 245.41 -86.02 251.2 -83.08 256.88 C-74 274.65 -74 274.65 -74 281 C-73.34 281 -72.68 281 -72 281 C-71.7 281.71 -71.4 282.43 -71.09 283.16 C-70.19 285.29 -69.29 287.41 -68.39 289.54 C-67.38 291.93 -66.37 294.33 -65.36 296.73 C-62.19 304.24 -62.19 304.24 -58.9 311.7 C-58.61 312.34 -58.33 312.98 -58.03 313.64 C-57.31 315.25 -56.57 316.86 -55.83 318.46 C-54.94 321.19 -54.84 322.39 -56 325 C-58.06 326.25 -58.06 326.25 -60 327 C-60 327.66 -60 328.32 -60 329 C-60.66 329 -61.32 329 -62 329 C-62.26 329.59 -62.51 330.17 -62.78 330.77 C-64.11 333.19 -65.57 334.73 -67.56 336.62 C-70.14 339.05 -70.14 339.05 -72 342 C-72.66 342 -73.32 342 -74 342 C-74 342.66 -74 343.32 -74 344 C-74.66 344 -75.32 344 -76 344 C-76.22 344.55 -76.45 345.1 -76.68 345.67 C-78.42 348.73 -80.66 350.81 -83.19 353.25 C-87.06 357.03 -90.73 360.9 -94.23 365.02 C-97.07 368.2 -100.13 371.15 -103.18 374.12 C-105.06 375.88 -105.06 375.88 -106 378 C-106.66 378 -107.32 378 -108 378 C-108 378.66 -108 379.32 -108 380 C-108.66 380 -109.32 380 -110 380 C-110.33 380.99 -110.66 381.98 -111 383 C-111.66 383 -112.32 383 -113 383 C-113.23 383.54 -113.45 384.07 -113.69 384.62 C-116.15 389.09 -119.31 392.52 -123.25 395.69 C-127.36 399.08 -130.51 403.14 -133.79 407.32 C-136.06 410.07 -138.45 412.51 -141 415 C-143.63 417.6 -146.25 420.21 -148.88 422.81 C-149.56 423.49 -150.24 424.16 -150.94 424.85 C-157.28 431.16 -163.1 437.82 -168.74 444.75 C-170 446 -170 446 -172 446 C-172 446.66 -172 447.32 -172 448 C-174.9 449.93 -175.9 450.3 -179.19 450.62 C-180.45 450.75 -181.7 450.87 -183 451 C-183 451.99 -183 452.98 -183 454 C-182.34 454.33 -181.68 454.66 -181 455 C-183 457 -183 457 -186 457 C-186 456.01 -186 455.02 -186 454 C-187.32 454.33 -188.64 454.66 -190 455 C-191 452 -191 452 -190 450 C-190.66 450 -191.32 450 -192 450 C-191.79 450.89 -191.59 451.77 -191.38 452.69 C-190.97 456.23 -191.43 457.87 -193 461 C-193.66 461 -194.32 461 -195 461 C-195 459.68 -195 458.36 -195 457 C-195.66 457 -196.32 457 -197 457 C-197.33 457.99 -197.66 458.98 -198 460 C-198.99 458.51 -198.99 458.51 -200 457 C-199.5 456.13 -199.5 456.13 -199 455.25 C-197.73 452.8 -197.73 452.8 -198 449 C-203.28 448.62 -203.28 448.62 -207 452 C-206.48 449.24 -205.89 446.67 -205 444 C-205.99 444.33 -206.98 444.66 -208 445 C-207.45 441.09 -205.7 439.41 -202.88 436.75 C-200.03 434 -197.27 431.26 -194.69 428.25 C-191.64 424.7 -188.49 421.25 -185.31 417.81 C-184.8 417.26 -184.29 416.7 -183.76 416.13 C-182.7 414.99 -181.64 413.85 -180.58 412.71 C-178.03 409.96 -175.48 407.2 -172.94 404.44 C-172.44 403.9 -171.94 403.36 -171.43 402.8 C-167.23 398.26 -163.06 393.7 -158.88 389.13 C-156.76 386.82 -154.63 384.53 -152.49 382.24 C-151.9 381.61 -151.31 380.98 -150.7 380.32 C-149.55 379.09 -148.39 377.86 -147.24 376.63 C-144.94 374.17 -142.87 371.81 -141 369 C-140.34 369 -139.68 369 -139 369 C-138.74 368.41 -138.47 367.81 -138.2 367.2 C-136.96 364.92 -135.7 363.53 -133.81 361.75 C-131.34 359.35 -129 356.92 -126.75 354.31 C-123.83 350.93 -120.84 347.61 -117.81 344.31 C-117.35 343.81 -116.88 343.3 -116.41 342.78 C-113.39 339.51 -110.38 336.24 -107.35 332.98 C-105.84 331.34 -104.33 329.69 -102.82 328.05 C-101.05 326.12 -99.26 324.25 -97.43 322.39 C-96.69 321.62 -95.95 320.85 -95.19 320.06 C-94.54 319.41 -93.9 318.77 -93.23 318.1 C-90.13 312.81 -94.5 306.15 -96.81 301.12 C-97.33 299.98 -97.33 299.98 -97.85 298.81 C-99.51 295.16 -101.21 291.54 -103.02 287.96 C-105.1 283.85 -106.97 279.66 -108.81 275.44 C-111.86 268.54 -114.98 261.68 -118.19 254.85 C-120.49 249.96 -122.77 245.06 -125.06 240.16 C-126.36 237.36 -127.67 234.56 -128.99 231.76 C-130.67 228.18 -132.33 224.58 -133.99 220.99 C-134.67 219.52 -135.36 218.05 -136.05 216.58 C-137.07 214.42 -138.07 212.25 -139.06 210.08 C-139.37 209.43 -139.69 208.77 -140.01 208.1 C-142.66 202.24 -142.66 202.24 -141 199 C-139.22 196.88 -139.22 196.88 -136.92 194.63 C-136.09 193.81 -135.26 192.99 -134.4 192.14 C-133.53 191.29 -132.65 190.44 -131.75 189.56 C-130.89 188.72 -130.03 187.87 -129.14 187 C-127.49 185.37 -125.83 183.74 -124.16 182.11 C-121.76 179.76 -119.38 177.38 -117 175 C-116.34 174.35 -115.69 173.71 -115.01 173.04 C-111.06 169.16 -107.32 165.18 -103.74 160.96 C-102.44 159.5 -101.09 158.1 -99.7 156.73 C-97.03 154.03 -94.54 151.25 -92.05 148.38 C-87.22 142.85 -82.27 137.44 -77.25 132.08 C-74.24 128.84 -71.27 125.58 -68.39 122.22 C-67.82 121.57 -67.25 120.91 -66.67 120.23 C-65.62 119.03 -64.58 117.81 -63.57 116.57 C-43.31 93.33 -33.46 99 0 99 C0 66.33 0 33.66 0 0 Z " fill="#F9F7F9" transform="translate(239,95)"/>
<path d="M0 0 C4.59 8.26 4.59 8.26 4 13 C4.66 13 5.32 13 6 13 C6.31 13.85 6.63 14.69 6.95 15.56 C7.38 16.7 7.81 17.83 8.25 19 C8.88 20.67 8.88 20.67 9.52 22.38 C10.87 25.67 12.36 28.8 13.97 31.97 C15.64 35.28 17.19 38.64 18.75 42 C21.48 47.84 24.28 53.62 27.19 59.38 C30.84 66.61 34.26 73.92 37.44 81.38 C39.4 85.93 41.5 90.42 43.59 94.91 C44.64 97.22 45.66 99.53 46.62 101.88 C47.91 104.8 49.43 107.47 51.04 110.21 C52.3 112.56 53.14 115.02 54.03 117.52 C56.11 122.83 58.67 127.95 61.11 133.11 C62.42 135.9 63.71 138.7 65 141.5 C67.11 146.09 69.24 150.67 71.38 155.25 C71.66 155.87 71.95 156.49 72.25 157.13 C73.84 160.53 75.44 163.92 77.05 167.31 C77.74 168.77 78.43 170.23 79.12 171.69 C79.46 172.4 79.8 173.11 80.15 173.85 C82.14 178.08 84 182.35 85.75 186.69 C87.44 190.85 89.47 194.29 92 198 C93.92 202.18 95 205.35 95 210 C95.66 210 96.32 210 97 210 C97.41 210.97 97.82 211.94 98.25 212.94 C101.35 220.15 104.56 227.26 108.12 234.25 C110.95 239.79 113.46 245.36 115.79 251.13 C117.52 255.24 119.58 259.17 121.6 263.14 C122.85 265.69 123.92 268.23 124.94 270.88 C127 276.24 129.6 281.3 132.22 286.41 C133.52 288.97 134.71 291.57 135.86 294.2 C137.42 297.76 139.09 301.25 140.83 304.73 C141.32 305.72 141.81 306.71 142.31 307.72 C143.32 309.76 144.34 311.8 145.37 313.82 C145.85 314.81 146.34 315.79 146.83 316.8 C147.27 317.68 147.71 318.56 148.17 319.46 C149.52 323.58 148.8 326.04 146.06 329.31 C144 331 144 331 142 331 C141.77 331.56 141.54 332.12 141.3 332.69 C139.66 335.6 137.62 337.58 135.24 339.92 C134.77 340.39 134.3 340.85 133.82 341.33 C132.32 342.81 130.82 344.28 129.31 345.75 C120.6 354.28 120.6 354.28 112.46 363.36 C110.21 365.88 107.62 367.88 105 370 C104.67 370.66 104.34 371.32 104 372 C103.34 372 102.68 372 102 372 C101.34 373.32 100.68 374.64 100 376 C99.01 376 98.02 376 97 376 C96.48 374.96 95.96 373.92 95.43 372.85 C95.09 372.18 94.75 371.51 94.41 370.82 C93.68 369.35 92.94 367.88 92.21 366.41 C90.62 363.24 89.03 360.06 87.43 356.89 C86.78 355.61 86.78 355.61 86.12 354.31 C85.76 353.59 85.39 352.86 85.01 352.11 C84 350 84 350 83.12 347.73 C81.61 344.05 79.81 340.54 78 337 C69.87 320.91 62.04 304.69 54.52 288.3 C47.32 272.67 47.32 272.67 39.29 257.45 C37.18 253.44 35.57 249.25 34 245 C30.71 246.1 30.12 246.78 28 249.38 C22.52 255.84 16.38 261.67 10.35 267.61 C8.46 269.54 6.71 271.47 5 273.56 C2.58 276.44 -0.02 278.7 -3 281 C-3.33 281.66 -3.66 282.32 -4 283 C-4.66 283 -5.32 283 -6 283 C-6.27 283.64 -6.54 284.28 -6.81 284.94 C-8 287 -8 287 -11 288 C-11.33 288.99 -11.66 289.98 -12 291 C-12.66 291 -13.32 291 -14 291 C-14 291.66 -14 292.32 -14 293 C-14.66 293 -15.32 293 -16 293 C-16.33 293.99 -16.66 294.98 -17 296 C-19.56 299 -19.56 299 -22 299 C-22 299.66 -22 300.32 -22 301 C-22.66 301 -23.32 301 -24 301 C-24.33 301.99 -24.66 302.98 -25 304 C-25.66 304 -26.32 304 -27 304 C-27.37 304.84 -27.37 304.84 -27.75 305.69 C-30.58 310.92 -34.57 314.42 -39.04 318.22 C-40.85 319.86 -42.36 321.53 -43.88 323.44 C-46 326 -46 326 -48 326 C-48.33 326.99 -48.66 327.98 -49 329 C-49.66 329 -50.32 329 -51 329 C-51.33 329.99 -51.66 330.98 -52 332 C-53.62 333.71 -55.3 335.37 -57 337 C-58.24 338.24 -58.24 338.24 -59.5 339.5 C-77 357 -77 357 -79.62 359.61 C-80.99 360.99 -82.36 362.38 -83.7 363.8 C-87.67 368 -87.67 368 -91 368 C-91.72 366.27 -92.43 364.55 -93.15 362.82 C-94.07 360.73 -94.07 360.73 -96 358 C-96 356.68 -96 355.36 -96 354 C-96.66 354 -97.32 354 -98 354 C-99.26 351.09 -100 349.2 -100 346 C-100.66 346 -101.32 346 -102 346 C-103.26 343.09 -104 341.2 -104 338 C-104.66 338 -105.32 338 -106 338 C-106.3 337.38 -106.59 336.75 -106.9 336.11 C-107.78 334.25 -108.67 332.39 -109.56 330.53 C-110.56 328.42 -111.57 326.31 -112.57 324.2 C-114.76 319.61 -116.95 315.03 -119.32 310.53 C-119.65 309.9 -119.99 309.27 -120.33 308.62 C-121.19 306.99 -122.07 305.36 -122.95 303.74 C-124.17 300.55 -124.21 299.18 -123 296 C-121.4 294.04 -121.4 294.04 -119.38 292.19 C-115.79 288.8 -112.59 285.27 -109.45 281.47 C-108 280 -108 280 -106 280 C-105.73 279.41 -105.46 278.81 -105.19 278.2 C-103.99 275.98 -102.8 274.58 -101 272.84 C-100.42 272.27 -99.84 271.71 -99.25 271.12 C-98.35 270.26 -98.35 270.26 -97.44 269.38 C-96.25 268.22 -95.06 267.06 -93.87 265.9 C-93.34 265.39 -92.82 264.88 -92.28 264.36 C-90.88 263.01 -90.88 263.01 -90 261 C-89.34 261 -88.68 261 -88 261 C-87.66 260.16 -87.66 260.16 -87.31 259.31 C-85.98 256.97 -84.44 255.39 -82.53 253.52 C-78.81 249.81 -75.28 245.91 -71.7 242.06 C-68.05 238.14 -64.34 234.3 -60.52 230.55 C-59.05 229.05 -57.7 227.5 -56.38 225.88 C-54.06 223.07 -51.57 220.57 -49 218 C-47.42 216.13 -45.87 214.26 -44.33 212.36 C-43 211 -43 211 -41 211 C-40.67 210.01 -40.34 209.02 -40 208 C-39.34 208 -38.68 208 -38 208 C-37.67 207.01 -37.34 206.02 -37 205 C-36.34 205 -35.68 205 -35 205 C-34.76 204.45 -34.53 203.9 -34.28 203.33 C-32.69 200.43 -30.71 198.2 -28.5 195.75 C-27.71 194.86 -26.91 193.97 -26.09 193.05 C-24 191 -24 191 -22 191 C-22 190.34 -22 189.68 -22 189 C-21.34 189 -20.68 189 -20 189 C-19.75 188.42 -19.49 187.83 -19.23 187.23 C-17.87 184.76 -16.36 183.19 -14.31 181.25 C-10.84 177.88 -7.65 174.37 -4.54 170.66 C-3 169 -3 169 0 167 C-0.62 162.45 -2.47 158.77 -4.56 154.75 C-7.47 149.07 -10.26 143.36 -12.94 137.56 C-16.05 130.86 -19.42 124.34 -22.92 117.83 C-25.14 113.68 -27.22 109.52 -29.04 105.18 C-30.04 102.9 -31.14 100.69 -32.26 98.48 C-35.62 91.81 -38.8 85.05 -41.98 78.3 C-44.47 73.07 -47.08 68 -50 63 C-51.73 59.46 -53.22 55.88 -54 52 C-53.01 51.67 -52.02 51.34 -51 51 C-50.32 49.68 -49.65 48.34 -49 47 C-45.44 43 -45.44 43 -43 43 C-42.63 42.14 -42.63 42.14 -42.26 41.27 C-40.79 38.62 -39.07 36.86 -36.9 34.74 C-36.1 33.95 -35.3 33.16 -34.47 32.35 C-33.64 31.53 -32.8 30.72 -31.94 29.88 C-30.28 28.25 -28.62 26.62 -26.96 24.99 C-26.23 24.27 -25.49 23.56 -24.73 22.82 C-22.93 21.1 -22.93 21.1 -22 19 C-21.34 19 -20.68 19 -20 19 C-19.34 17.68 -18.68 16.36 -18 15 C-17.34 15 -16.68 15 -16 15 C-16 14.34 -16 13.68 -16 13 C-15.34 13 -14.68 13 -14 13 C-13.63 12.07 -13.63 12.07 -13.25 11.12 C-11.79 8.65 -10.62 8.05 -8 7 C-8 6.34 -8 5.68 -8 5 C-7.34 5 -6.68 5 -6 5 C-5.54 4.04 -5.54 4.04 -5.06 3.06 C-3.48 0 -3.48 0 0 0 Z " fill="#F3F0F2" transform="translate(219,256)"/>
<path d="M0 0 C2.97 0 5.94 0 9 0 C8.67 0.99 8.34 1.98 8 3 C6.35 3 4.7 3 3 3 C3 3.66 3 4.32 3 5 C5.31 5 7.62 5 10 5 C9.34 5.66 8.68 6.32 8 7 C7.34 6.67 6.68 6.34 6 6 C6 6.66 6 7.32 6 8 C6.99 8 7.98 8 9 8 C9 8.99 9 9.98 9 11 C9.33 10.34 9.66 9.68 10 9 C12.47 9.5 12.47 9.5 15 10 C6.26 29.31 -3.87 47.61 -16 65 C-16.61 65.88 -16.61 65.88 -17.23 66.78 C-25.47 78.77 -34.48 89.91 -45 100 C-45.89 100.89 -46.77 101.77 -47.69 102.69 C-48.45 103.45 -49.21 104.21 -50 105 C-50.89 105.93 -51.77 106.86 -52.69 107.81 C-55 110 -55 110 -57 110 C-57 110.66 -57 111.32 -57 112 C-79.78 131.39 -109.39 144.38 -137.9 152.4 C-140.28 153.08 -142.65 153.78 -145.02 154.49 C-167.37 160.98 -189.68 164.16 -212.94 164.14 C-214.42 164.14 -215.9 164.15 -217.38 164.15 C-221.4 164.16 -225.43 164.16 -229.46 164.16 C-233.82 164.16 -238.17 164.17 -242.53 164.18 C-252.03 164.19 -261.53 164.2 -271.04 164.2 C-276.97 164.2 -282.9 164.21 -288.84 164.21 C-305.27 164.22 -321.7 164.23 -338.13 164.24 C-339.71 164.24 -339.71 164.24 -341.31 164.24 C-342.36 164.24 -343.42 164.24 -344.5 164.24 C-346.63 164.24 -348.76 164.24 -350.9 164.24 C-351.95 164.24 -353.01 164.24 -354.1 164.24 C-371.27 164.24 -388.45 164.26 -405.62 164.29 C-423.25 164.31 -440.89 164.32 -458.52 164.32 C-468.42 164.32 -478.33 164.33 -488.23 164.35 C-496.64 164.36 -505.06 164.37 -513.48 164.36 C-517.78 164.36 -522.08 164.36 -526.38 164.37 C-530.31 164.38 -534.23 164.38 -538.16 164.37 C-539.59 164.37 -541.02 164.37 -542.44 164.38 C-544.37 164.39 -546.3 164.38 -548.23 164.37 C-549.84 164.37 -549.84 164.37 -551.48 164.37 C-554 164 -554 164 -556 161 C-556.66 161 -557.32 161 -558 161 C-558 158.36 -558 155.72 -558 153 C-558.66 153 -559.32 153 -560 153 C-560 155.64 -560 158.28 -560 161 C-562.15 158.38 -563.4 156.36 -564 153 C-567.82 154.27 -567.78 155.35 -569 159 C-569.33 159 -569.66 159 -570 159 C-570.12 157.87 -570.25 156.73 -570.38 155.56 C-570.53 151.9 -570.53 151.9 -573 151 C-573.66 151.66 -574.32 152.32 -575 153 C-575.33 152.53 -575.66 152.05 -576 151.56 C-579.1 149.14 -582.12 149.32 -586 149 C-585.67 147.35 -585.34 145.7 -585 144 C-582.69 144 -580.38 144 -578 144 C-578 143.34 -578 142.68 -578 142 C-579.03 142.16 -579.03 142.16 -580.08 142.32 C-580.98 142.44 -581.88 142.56 -582.81 142.69 C-584.15 142.88 -584.15 142.88 -585.52 143.07 C-588.6 142.98 -589.12 142.35 -591 140 C-591.47 139.56 -591.94 139.13 -592.43 138.68 C-594.25 136.73 -595.27 134.83 -596.46 132.44 C-596.93 131.51 -597.39 130.58 -597.87 129.63 C-598.37 128.62 -598.86 127.6 -599.38 126.56 C-599.9 125.5 -600.43 124.44 -600.97 123.35 C-605.5 114.14 -609.84 104.84 -614.13 95.52 C-617.78 87.6 -621.51 79.73 -625.31 71.88 C-629.44 63.33 -633.4 54.74 -637.21 46.05 C-638.9 42.2 -640.66 38.38 -642.44 34.56 C-642.99 33.37 -643.54 32.18 -644.11 30.95 C-645.53 27.94 -647.03 24.98 -648.54 22.02 C-648.97 21.17 -649.4 20.31 -649.84 19.43 C-650.68 17.76 -651.54 16.09 -652.42 14.43 C-655.28 8.68 -655.28 8.68 -653.74 4.95 C-652.88 3.98 -652.88 3.98 -652 3 C-650.68 3.33 -649.36 3.66 -648 4 C-648.33 6.31 -648.66 8.62 -649 11 C-648.61 10.5 -648.22 10.01 -647.81 9.5 C-645.43 7.53 -644.01 7.68 -641 8 C-638.97 10.03 -639.86 13.35 -640 16 C-640.66 16.66 -641.32 17.32 -642 18 C-641.67 18.33 -641.34 18.66 -641 19 C-640.67 18.34 -640.34 17.68 -640 17 C-639.34 17 -638.68 17 -638 17 C-638 18.32 -638 19.64 -638 21 C-635.07 19.53 -635.61 18.09 -635.38 14.94 C-635.3 14.02 -635.23 13.1 -635.15 12.15 C-635.1 11.44 -635.05 10.73 -635 10 C-634.34 10 -633.68 10 -633 10 C-633 11.32 -633 12.64 -633 14 C-631.68 14 -630.36 14 -629 14 C-629 14.99 -629 15.98 -629 17 C-628.01 16.34 -627.02 15.68 -626 15 C-626.33 15 -626.66 15 -627 15 C-627 13.02 -627 11.04 -627 9 C-626.67 9.66 -626.34 10.32 -626 11 C-623.36 10.67 -620.72 10.34 -618 10 C-617.5 12.97 -617.5 12.97 -617 16 C-616.34 16 -615.68 16 -615 16 C-614.66 16.89 -614.32 17.77 -613.97 18.68 C-610.82 26.78 -607.38 34.66 -603.54 42.45 C-601 47.69 -601 47.69 -601 51 C-600.34 51 -599.68 51 -599 51 C-598.69 51.77 -598.37 52.55 -598.05 53.34 C-595.14 60.44 -595.14 60.44 -591.75 67.31 C-589.89 70.89 -589.33 74 -589 78 C-588.34 78 -587.68 78 -587 78 C-586.54 79.06 -586.08 80.12 -585.61 81.22 C-582.57 88.24 -579.52 95.21 -576 102 C-573.38 107.14 -570.88 112.33 -568.44 117.56 C-568.14 118.19 -567.85 118.81 -567.55 119.46 C-566.69 121.3 -565.84 123.15 -565 125 C-564.56 125.95 -564.56 125.95 -564.12 126.92 C-562.83 129.79 -562 131.81 -562 135 C-527.68 135 -493.36 135 -458 135 C-457.67 133.68 -457.34 132.36 -457 131 C-453.67 127 -453.67 127 -450 127 C-450 126.34 -450 125.68 -450 125 C-449.34 125 -448.68 125 -448 125 C-447.67 123.02 -447.34 121.04 -447 119 C-446.38 118.94 -445.76 118.88 -445.12 118.81 C-442.1 117.66 -441.92 115.98 -441 113 C-440.34 113 -439.68 113 -439 113 C-438.73 112.36 -438.46 111.72 -438.19 111.06 C-437 109 -437 109 -434 108 C-433.67 107.01 -433.34 106.02 -433 105 C-432.34 105 -431.68 105 -431 105 C-431 104.34 -431 103.68 -431 103 C-429.68 102.67 -428.36 102.34 -427 102 C-426.94 101.38 -426.88 100.76 -426.81 100.12 C-425.66 97.11 -423.92 97.14 -421 96 C-419.7 94.07 -419.7 94.07 -419 92 C-418.67 91.34 -418.34 90.68 -418 90 C-417.34 90 -416.68 90 -416 90 C-416 104.52 -416 119.04 -416 134 C-391.04 133.94 -366.08 133.86 -341.12 133.76 C-329.53 133.72 -317.94 133.68 -306.35 133.65 C-296.23 133.63 -286.12 133.6 -276 133.55 C-270.66 133.53 -265.31 133.51 -259.97 133.5 C-237.78 133.47 -215.99 133.29 -194 130 C-192.06 129.72 -190.13 129.44 -188.19 129.16 C-181.32 128.16 -174.67 127 -168 125 C-166.32 124.53 -164.65 124.06 -162.97 123.6 C-161.15 123.09 -159.32 122.57 -157.5 122.06 C-156.59 121.81 -155.68 121.56 -154.74 121.3 C-149.62 119.85 -144.85 118.18 -140 116 C-137.98 115.24 -135.96 114.49 -133.94 113.75 C-127.67 111.37 -121.82 108.48 -115.9 105.36 C-113 104 -113 104 -110 104 C-110 103.34 -110 102.68 -110 102 C-109.11 101.56 -108.21 101.13 -107.29 100.68 C-99.03 96.63 -91.13 92.24 -83.35 87.33 C-81 86 -81 86 -79 86 C-79 85.34 -79 84.68 -79 84 C-77.16 82.59 -77.16 82.59 -74.62 80.94 C-65.3 74.58 -57.57 66.95 -50.53 58.17 C-47.17 54 -47.17 54 -45 54 C-44.58 53.11 -44.58 53.11 -44.16 52.2 C-43.08 50.15 -41.94 48.55 -40.5 46.75 C-36.74 41.86 -33.57 36.62 -30.34 31.37 C-26.33 24.87 -26.33 24.87 -20 25 C-19.86 24.09 -19.71 23.18 -19.56 22.25 C-19.14 19.79 -18.65 17.41 -18 15 C-16.35 15 -14.7 15 -13 15 C-11.84 18.47 -11.93 21.36 -12 25 C-9.69 25 -7.38 25 -5 25 C-5 24.34 -5 23.68 -5 23 C-4.34 23 -3.68 23 -3 23 C-3.33 21.02 -3.66 19.04 -4 17 C-2.68 17 -1.36 17 0 17 C-0.66 13.7 -1.32 10.4 -2 7 C-1.01 7 -0.02 7 1 7 C0.67 4.69 0.34 2.38 0 0 Z " fill="#DBD8DA" transform="translate(682,535)"/>
<path d="M0 0 C7.89 -0.09 15.77 -0.16 23.66 -0.21 C27.32 -0.23 30.99 -0.26 34.65 -0.3 C58.42 -0.59 83.28 -0.04 104.17 12.98 C106.1 14.05 107.85 14.56 110 15 C110 15.66 110 16.32 110 17 C110.54 17.09 111.08 17.19 111.64 17.29 C114.7 18.21 117.06 19.72 119.75 21.44 C120.73 22.05 121.72 22.67 122.73 23.31 C125 25 125 25 125 27 C125.58 27.27 126.17 27.54 126.77 27.81 C129.03 29.01 130.81 30.34 132.75 32 C133.36 32.52 133.98 33.03 134.61 33.56 C136 35 136 35 136 37 C136.66 37 137.32 37 138 37 C140.55 39.47 142.74 42.27 145 45 C145.56 45.67 146.12 46.35 146.7 47.04 C154.56 56.81 161.33 67.34 166 79 C166.47 80.12 166.94 81.24 167.42 82.39 C175.68 102.72 179.32 124.33 182 146 C182.09 146.68 182.17 147.36 182.26 148.06 C182.9 153.34 183.16 158.53 183.17 163.85 C183.17 164.66 183.17 165.48 183.18 166.32 C183.18 168.03 183.19 169.75 183.19 171.46 C183.19 174.03 183.21 176.6 183.22 179.17 C183.27 193.41 182.18 207.13 178.44 220.94 C178.18 221.89 177.93 222.85 177.66 223.83 C172.99 240.75 167.46 257.15 158 272 C156.68 274.22 155.37 276.45 154.06 278.69 C153.5 279.64 152.93 280.59 152.35 281.57 C150.89 284.02 150.89 284.02 150 287 C148.87 288.13 147.73 289.26 146.57 290.36 C144.64 292.38 142.97 294.54 141.25 296.75 C125.76 316.31 98.79 332.73 73 332 C73 330.68 73 329.36 73 328 C72.34 328 71.68 328 71 328 C70.79 327.38 70.58 326.76 70.37 326.12 C68.18 319.82 65.58 313.79 62.71 307.77 C60.68 303.49 58.77 299.18 56.94 294.81 C55.09 290.43 53.11 286.17 50.94 281.94 C48.27 276.73 46.16 271.41 44.18 265.91 C43.11 263.04 43.11 263.04 41.61 260.75 C39.78 257.62 38.54 254.45 37.23 251.09 C34.89 245.23 32.35 239.46 29.83 233.68 C28.87 231.48 27.91 229.27 26.96 227.06 C26.34 225.66 25.73 224.25 25.12 222.84 C24.83 222.19 24.55 221.53 24.26 220.85 C23.07 218.13 22.12 216.12 20 214 C19.14 211.96 18.33 209.89 17.56 207.81 C16.18 204.12 14.81 200.46 13.19 196.88 C12 194 12 194 12 191 C11.34 191 10.68 191 10 191 C8.71 187.94 7.42 184.88 6.12 181.81 C5.76 180.95 5.4 180.08 5.02 179.19 C4.67 178.35 4.31 177.51 3.95 176.64 C3.46 175.49 3.46 175.49 2.96 174.31 C2.49 173.17 2.49 173.17 2 172 C1.66 171.27 1.31 170.54 0.95 169.79 C-0.2 166.41 -0.25 163.64 -0.24 160.06 C-0.24 159.37 -0.24 158.69 -0.25 157.98 C-0.25 155.69 -0.24 153.39 -0.23 151.1 C-0.23 149.46 -0.23 147.81 -0.23 146.16 C-0.23 141.7 -0.22 137.24 -0.2 132.77 C-0.19 128.1 -0.19 123.44 -0.19 118.77 C-0.18 109.93 -0.16 101.1 -0.14 92.26 C-0.12 82.2 -0.11 72.14 -0.1 62.08 C-0.08 41.39 -0.04 20.69 0 0 Z M23 29 C23.33 29.99 23.66 30.98 24 32 C24.08 33.41 24.11 34.82 24.1 36.23 C24.09 37.03 24.09 37.84 24.09 38.66 C24.08 39.5 24.07 40.33 24.06 41.19 C24.06 42.03 24.05 42.88 24.05 43.75 C24.04 45.83 24.02 47.92 24 50 C24.99 50 25.98 50 27 50 C26.99 50.55 26.98 51.1 26.97 51.67 C26.77 65.28 26.65 78.88 26.61 92.49 C26.6 99.07 26.55 105.65 26.44 112.23 C25.96 141.77 25.7 167.1 41.19 192.93 C43.67 197.14 45.66 201.5 47.65 205.96 C48.28 207.3 48.91 208.64 49.55 209.97 C55.4 222.28 61.14 234.63 66.69 247.07 C69.34 253 72.01 258.92 74.68 264.84 C75.34 266.3 76 267.76 76.65 269.21 C81.92 283.94 81.92 283.94 91 295 C99.37 291.83 106.35 286.89 113 281 C113.61 280.48 114.23 279.96 114.86 279.43 C125.05 270.14 131.31 256.33 137 244 C137.46 243.03 137.92 242.05 138.4 241.05 C141.62 233.53 143.38 225.7 145.19 217.75 C145.44 216.66 145.69 215.56 145.95 214.43 C149.28 199.07 150.33 184.07 150.26 168.39 C150.25 165.63 150.26 162.88 150.27 160.12 C150.29 144.15 149.93 128.17 144.44 113 C144.09 112 143.74 111 143.38 109.97 C136.51 90.78 127.33 74.47 114 59 C113.58 58.5 113.16 58 112.72 57.48 C95.78 37.44 77.48 32.09 52.06 32.12 C49.91 32.11 47.77 32.09 45.62 32.06 C40.41 32.01 35.21 32 30 32 C31.71 30.29 34 30.77 36.35 30.68 C37.97 30.62 37.97 30.62 39.62 30.56 C40.76 30.52 41.89 30.48 43.06 30.44 C44.77 30.37 44.77 30.37 46.52 30.31 C49.34 30.2 52.17 30.1 55 30 C55 29.67 55 29.34 55 29 C50.93 28.83 46.85 28.67 42.77 28.52 C41.39 28.46 40 28.41 38.62 28.35 C36.62 28.27 34.63 28.2 32.64 28.12 C31.44 28.07 30.24 28.03 29 27.98 C25.95 27.85 25.95 27.85 23 29 Z " fill="#F8F7F8" transform="translate(393,230)"/>
<path d="M0 0 C0.29 0.64 0.58 1.28 0.88 1.94 C1.83 4.15 1.83 4.15 4 5 C5.26 10.1 5.26 10.1 5 13 C2.62 15.25 2.62 15.25 0 17 C-0.87 19.13 -0.87 19.13 -1 21 C-0.34 21 0.32 21 1 21 C1 21.66 1 22.32 1 23 C4.17 21.17 4.17 21.17 6 18 C6 18.99 6 19.98 6 21 C6.66 21 7.32 21 8 21 C8 21.66 8 22.32 8 23 C9.98 23.33 11.96 23.66 14 24 C13.5 22.51 13.5 22.51 13 21 C14.51 14.24 14.51 14.24 17 13 C17.66 10.47 17.66 10.47 18 8 C18.99 8 19.98 8 21 8 C21 8.99 21 9.98 21 11 C22.65 10.34 24.3 9.68 26 9 C26 8.34 26 7.68 26 7 C24.68 7.66 23.36 8.32 22 9 C21.5 7.02 21.5 7.02 21 5 C24.3 5 27.6 5 31 5 C31.13 13.03 31.13 13.03 30 17 C30 18.32 30 19.64 30 21 C33.98 21.03 37.96 21.05 41.94 21.06 C43.64 21.08 43.64 21.08 45.38 21.09 C46.46 21.09 47.54 21.09 48.65 21.1 C49.65 21.1 50.65 21.11 51.68 21.11 C53.96 21.26 53.96 21.26 55 20 C55.99 19.67 56.98 19.34 58 19 C58 19.99 58 20.98 58 22 C60.67 20.66 60.37 19.84 61 17 C61.65 15.33 62.31 13.66 63 12 C63.99 12.5 63.99 12.5 65 13 C64.67 13.66 64.34 14.32 64 15 C64.66 14.67 65.32 14.34 66 14 C66 13.01 66 12.02 66 11 C67.32 10.67 68.64 10.34 70 10 C70 9.34 70 8.68 70 8 C70.66 8 71.32 8 72 8 C72 8.66 72 9.32 72 10 C73.65 10.33 75.3 10.66 77 11 C77.33 13.64 77.66 16.28 78 19 C80.64 18.67 83.28 18.34 86 18 C86.33 18.66 86.66 19.32 87 20 C88.98 19.5 88.98 19.5 91 19 C91 19.66 91 20.32 91 21 C92.65 21 94.3 21 96 21 C97.33 26.92 96.66 29.78 94 35 C94.66 35 95.32 35 96 35 C96.81 48.96 91.02 65.89 83.1 77.38 C81.46 79.79 80.25 82.38 79 85 C77.35 85 75.7 85 74 85 C74 85.66 74 86.32 74 87 C73.34 87 72.68 87 72 87 C71.34 88.98 70.68 90.96 70 93 C69.34 93 68.68 93 68 93 C68 93.66 68 94.32 68 95 C67.34 95 66.68 95 66 95 C66 91.7 66 88.4 66 85 C64.68 85 63.36 85 62 85 C61.67 80.05 61.34 75.1 61 70 C59.27 69.98 57.53 69.96 55.75 69.94 C54.29 69.92 54.29 69.92 52.8 69.9 C50.34 69.99 48.34 70.29 46 71 C46 71.66 46 72.32 46 73 C46.66 73.33 47.32 73.66 48 74 C47.67 74.33 47.34 74.66 47 75 C46.77 76.68 46.59 78.37 46.44 80.06 C46.29 81.71 46.15 83.35 46 85 C36.48 86.24 27.02 86.08 17.44 86 C14.17 85.97 10.89 85.95 7.62 85.94 C6.49 85.93 6.49 85.93 5.35 85.91 C1.88 85.58 1.88 85.58 -1 87 C-1.11 88.94 -1.18 90.87 -1.25 92.81 C-1.7 98.63 -1.7 98.63 -4.19 101.69 C-7.17 103.08 -9.73 103.7 -13 104 C-12.67 103.34 -12.34 102.68 -12 102 C-13.98 101.67 -15.96 101.34 -18 101 C-18 97.04 -18 93.08 -18 89 C-23.28 89 -28.56 89 -34 89 C-34 92.96 -34 96.92 -34 101 C-36.64 101 -39.28 101 -42 101 C-42 100.34 -42 99.68 -42 99 C-44.64 99 -47.28 99 -50 99 C-50 97.68 -50 96.36 -50 95 C-47.36 95 -44.72 95 -42 95 C-42 94.34 -42 93.68 -42 93 C-44.64 93 -47.28 93 -50 93 C-50 92.34 -50 91.68 -50 91 C-47.36 90.67 -44.72 90.34 -42 90 C-42 89.01 -42 88.02 -42 87 C-43.32 87 -44.64 87 -46 87 C-46 86.34 -46 85.68 -46 85 C-47.32 85 -48.64 85 -50 85 C-50 82.36 -50 79.72 -50 77 C-51.32 77 -52.64 77 -54 77 C-54 76.34 -54 75.68 -54 75 C-54.66 75 -55.32 75 -56 75 C-56 74.34 -56 73.68 -56 73 C-56.99 73.33 -57.98 73.66 -59 74 C-59.99 74 -60.98 74 -62 74 C-65.18 74.61 -65.18 74.61 -65.69 77.06 C-65.79 77.7 -65.89 78.34 -66 79 C-66.66 79 -67.32 79 -68 79 C-68 79.66 -68 80.32 -68 81 C-68.66 81 -69.32 81 -70 81 C-70 80.34 -70 79.68 -70 79 C-72.64 79 -75.28 79 -78 79 C-78 79.66 -78 80.32 -78 81 C-77.34 81.33 -76.68 81.66 -76 82 C-76 82.66 -76 83.32 -76 84 C-77.19 83.98 -77.19 83.98 -78.41 83.96 C-86.25 83.88 -86.25 83.88 -94 85 C-92.52 82.04 -90.53 81.96 -87.44 80.88 C-75.19 76.29 -63.72 70.93 -54 62 C-53.32 61.39 -52.64 60.77 -51.93 60.14 C-46.9 55.37 -42.89 49.98 -38.88 44.34 C-37 42 -37 42 -35 42 C-34.67 40.35 -34.34 38.7 -34 37 C-32.35 37 -30.7 37 -29 37 C-29 37.66 -29 38.32 -29 39 C-28.34 39 -27.68 39 -27 39 C-27.33 38.34 -27.66 37.68 -28 37 C-28.04 35 -28.04 33 -28 31 C-27.34 31 -26.68 31 -26 31 C-26 30.34 -26 29.68 -26 29 C-25.34 29 -24.68 29 -24 29 C-24 27.02 -24 25.04 -24 23 C-23.34 23 -22.68 23 -22 23 C-21.9 22.46 -21.79 21.93 -21.69 21.38 C-20.82 18.37 -19.44 15.76 -18 13 C-17.01 13 -16.02 13 -15 13 C-15.5 11.02 -15.5 11.02 -16 9 C-14.68 9 -13.36 9 -12 9 C-12.66 10.65 -13.32 12.3 -14 14 C-11.47 11.64 -10.11 10.34 -9 7 C-4.54 6.5 -4.54 6.5 0 6 C0 4.02 0 2.04 0 0 Z " fill="#EE86DC" transform="translate(578,475)"/>
<path d="M0 0 C1.15 0.79 2.29 1.58 3.44 2.38 C4.08 2.82 4.71 3.26 5.37 3.71 C7 5 7 5 8 7 C10.53 7.66 10.53 7.66 13 8 C13 8.99 13 9.98 13 11 C13.66 11 14.32 11 15 11 C15 11.66 15 12.32 15 13 C15.99 13 16.98 13 18 13 C18 13.99 18 14.98 18 16 C18.66 16 19.32 16 20 16 C20 16.66 20 17.32 20 18 C20.99 18 21.98 18 23 18 C23 18.99 23 19.98 23 21 C23.66 21 24.32 21 25 21 C25 21.66 25 22.32 25 23 C25.99 23 26.98 23 28 23 C28 24.65 28 26.3 28 28 C28.66 28 29.32 28 30 28 C30 28.66 30 29.32 30 30 C30.99 30 31.98 30 33 30 C33 30.99 33 31.98 33 33 C33.66 33 34.32 33 35 33 C35 33.99 35 34.98 35 36 C35.99 36 36.98 36 38 36 C38 36.66 38 37.32 38 38 C38.66 38 39.32 38 40 38 C40 38.99 40 39.98 40 41 C40.99 41 41.98 41 43 41 C43 42.65 43 44.3 43 46 C43.66 46 44.32 46 45 46 C45 46.66 45 47.32 45 48 C45.99 48 46.98 48 48 48 C48 49.65 48 51.3 48 53 C48.66 53 49.32 53 50 53 C50 53.99 50 54.98 50 56 C50.99 56 51.98 56 53 56 C53 57.65 53 59.3 53 61 C53.66 61 54.32 61 55 61 C55.12 61.64 55.25 62.28 55.38 62.94 C55.79 65.2 55.79 65.2 58 66 C58 67.65 58 69.3 58 71 C58.66 71 59.32 71 60 71 C60.12 71.64 60.25 72.28 60.38 72.94 C60.79 75.2 60.79 75.2 63 76 C63 77.65 63 79.3 63 81 C63.66 81 64.32 81 65 81 C65.12 81.64 65.25 82.28 65.38 82.94 C65.79 85.2 65.79 85.2 68 86 C68 87.65 68 89.3 68 91 C68.66 91 69.32 91 70 91 C70.12 91.64 70.25 92.28 70.38 92.94 C70.79 95.2 70.79 95.2 73 96 C73 97.65 73 99.3 73 101 C73.66 101 74.32 101 75 101 C75.12 101.97 75.25 102.94 75.38 103.94 C75.61 107.13 75.61 107.13 78 108 C78 109.65 78 111.3 78 113 C78.66 113 79.32 113 80 113 C80.19 114.7 80.19 114.7 80.38 116.44 C80.53 120.1 80.53 120.1 83 121 C83 123.31 83 125.62 83 128 C83.66 128 84.32 128 85 128 C85.33 130.64 85.66 133.28 86 136 C86.66 136 87.32 136 88 136 C88 137.65 88 139.3 88 141 C88.66 141 89.32 141 90 141 C90.33 144.3 90.66 147.6 91 151 C91.66 151 92.32 151 93 151 C93 154.3 93 157.6 93 161 C93.66 161 94.32 161 95 161 C95.33 164.3 95.66 167.6 96 171 C96.66 171 97.32 171 98 171 C98 174.3 98 177.6 98 181 C98.66 181 99.32 181 100 181 C100.73 191.02 101.14 200.94 101 211 C101.66 211 102.32 211 103 211 C103 227.5 103 244 103 261 C102.34 261 101.68 261 101 261 C101.01 261.8 101.02 262.6 101.04 263.43 C101.11 273.32 100.63 283.13 100 293 C99.34 293 98.68 293 98 293 C98 298.94 98 304.88 98 311 C97.34 311 96.68 311 96 311 C95.67 314.96 95.34 318.92 95 323 C94.34 323 93.68 323 93 323 C93 327.95 93 332.9 93 338 C92.34 338 91.68 338 91 338 C90.67 342.29 90.34 346.58 90 351 C89.34 351 88.68 351 88 351 C88 354.3 88 357.6 88 361 C87.01 361 86.02 361 85 361 C85 362.65 85 364.3 85 366 C84.34 366 83.68 366 83 366 C83 368.31 83 370.62 83 373 C82.34 373.33 81.68 373.66 81 374 C80.35 376.02 80.35 376.02 80 378 C79.34 378 78.68 378 78 378 C78 380.64 78 383.28 78 386 C77.01 386 76.02 386 75 386 C75 387.65 75 389.3 75 391 C74.34 391 73.68 391 73 391 C73 392.65 73 394.3 73 396 C72.01 396 71.02 396 70 396 C70 397.65 70 399.3 70 401 C69.34 401 68.68 401 68 401 C68 402.65 68 404.3 68 406 C67.01 406 66.02 406 65 406 C65 407.65 65 409.3 65 411 C64.34 411 63.68 411 63 411 C63 412.65 63 414.3 63 416 C62.01 416 61.02 416 60 416 C60 417.65 60 419.3 60 421 C59.34 421 58.68 421 58 421 C58 421.66 58 422.32 58 423 C57.34 423.33 56.68 423.66 56 424 C55.35 426.02 55.35 426.02 55 428 C54.34 428 53.68 428 53 428 C53 429.65 53 431.3 53 433 C52.01 433 51.02 433 50 433 C50 433.99 50 434.98 50 436 C49.34 436 48.68 436 48 436 C48 437.65 48 439.3 48 441 C47.01 441 46.02 441 45 441 C45 441.66 45 442.32 45 443 C44.34 443 43.68 443 43 443 C43 444.65 43 446.3 43 448 C42.01 448 41.02 448 40 448 C40 448.99 40 449.98 40 451 C39.34 451 38.68 451 38 451 C38 452.65 38 454.3 38 456 C37.01 456 36.02 456 35 456 C35 456.66 35 457.32 35 458 C34.34 458 33.68 458 33 458 C33 458.99 33 459.98 33 461 C32.01 461 31.02 461 30 461 C30 462.65 30 464.3 30 466 C29.34 466 28.68 466 28 466 C28 466.66 28 467.32 28 468 C27.01 468 26.02 468 25 468 C25 468.99 25 469.98 25 471 C24.34 471 23.68 471 23 471 C23 471.66 23 472.32 23 473 C22.01 473 21.02 473 20 473 C20 473.99 20 474.98 20 476 C19.34 476 18.68 476 18 476 C18 477.65 18 479.3 18 481 C17.01 481 16.02 481 15 481 C15 481.66 15 482.32 15 483 C14.34 483 13.68 483 13 483 C13 483.99 13 484.98 13 486 C12.01 486 11.02 486 10 486 C10 486.66 10 487.32 10 488 C9.34 488 8.68 488 8 488 C8 488.99 8 489.98 8 491 C7.01 491 6.02 491 5 491 C5 491.66 5 492.32 5 493 C4.36 493.12 3.72 493.25 3.06 493.38 C0.8 493.79 0.8 493.79 0 496 C-0.66 496 -1.32 496 -2 496 C-2 496.66 -2 497.32 -2 498 C-2.99 498 -3.98 498 -5 498 C-5 498.99 -5 499.98 -5 501 C-5.66 501 -6.32 501 -7 501 C-7 501.66 -7 502.32 -7 503 C-8.65 503 -10.3 503 -12 503 C-12 503.99 -12 504.98 -12 506 C-12.99 506 -13.98 506 -15 506 C-15 506.66 -15 507.32 -15 508 C-15.66 508 -16.32 508 -17 508 C-17 508.99 -17 509.98 -17 511 C-18.65 511 -20.3 511 -22 511 C-22 511.66 -22 512.32 -22 513 C-23.65 513 -25.3 513 -27 513 C-27 513.99 -27 514.98 -27 516 C-27.99 516 -28.98 516 -30 516 C-30 516.66 -30 517.32 -30 518 C-31.65 518 -33.3 518 -35 518 C-35 518.99 -35 519.98 -35 521 C-36.65 521 -38.3 521 -40 521 C-40 521.66 -40 522.32 -40 523 C-41.65 523 -43.3 523 -45 523 C-45 523.99 -45 524.98 -45 526 C-46.65 526 -48.3 526 -50 526 C-50 526.66 -50 527.32 -50 528 C-52.31 528.33 -54.62 528.66 -57 529 C-57 529.66 -57 530.32 -57 531 C-58.65 531 -60.3 531 -62 531 C-62 531.66 -62 532.32 -62 533 C-64.64 533 -67.28 533 -70 533 C-70 533.99 -70 534.98 -70 536 C-72.31 536 -74.62 536 -77 536 C-77 536.66 -77 537.32 -77 538 C-80.04 538.34 -83.08 538.67 -86.12 539 C-86.98 539.1 -87.84 539.19 -88.72 539.29 C-93.17 539.77 -97.51 540.12 -102 540 C-99.25 538.16 -97.72 537.53 -94.6 536.77 C-93.72 536.55 -92.84 536.33 -91.93 536.1 C-90.51 535.74 -90.51 535.74 -89.06 535.38 C-78.81 532.68 -69.12 529.2 -59.39 525.02 C-57.05 524.02 -54.7 523.04 -52.35 522.06 C-38.03 516.01 -24.84 508.42 -12.38 499.14 C-9.91 497.3 -7.94 495.98 -5 495 C-5 494.34 -5 493.68 -5 493 C-3.36 491.31 -3.36 491.31 -1.19 489.44 C-0.48 488.82 0.23 488.2 0.96 487.56 C3 486 3 486 6 485 C6.67 483.67 7.34 482.34 8 481 C9.52 479.39 11.09 477.84 12.69 476.31 C17.28 471.79 21.21 467.19 25 462 C25.98 460.69 26.96 459.38 27.93 458.07 C35.58 447.73 42.54 437.12 49 426 C49.41 425.29 49.83 424.58 50.25 423.85 C67.77 393.48 81.03 363.39 88 329 C88.18 328.12 88.36 327.23 88.55 326.32 C90.95 314.43 92.68 302.47 94.19 290.44 C94.27 289.76 94.36 289.09 94.44 288.4 C95 283.94 95.52 279.47 96 275 C96.11 274.02 96.22 273.03 96.33 272.02 C97.31 261.55 97.15 251.04 97.13 240.54 C97.13 237.21 97.13 233.88 97.14 230.54 C97.15 197.78 92.58 167.15 82 136 C81.78 135.32 81.56 134.64 81.34 133.93 C79.48 128.16 77.23 122.62 74.81 117.06 C74.23 115.71 74.23 115.71 73.63 114.32 C72.82 112.46 72.01 110.6 71.2 108.74 C70.05 106.11 68.91 103.48 67.77 100.84 C67.08 99.25 66.38 97.66 65.69 96.06 C65.37 95.34 65.06 94.61 64.74 93.86 C62.85 89.58 60.6 85.9 58 82 C57.26 80.32 56.53 78.64 55.84 76.94 C50.47 64.47 43.17 52.92 34.37 42.62 C33.03 41.03 31.72 39.42 30.41 37.8 C20.81 26.07 9.79 15.62 -1 5 C-1.99 4.01 -1.99 4.01 -3 3 C-2.01 3 -1.02 3 0 3 C0 2.01 0 1.02 0 0 Z " fill="#262626" transform="translate(630,152)"/>
<path d="M0 0 C3.25 1.63 3.15 4.65 4 8 C5.32 7.67 6.64 7.34 8 7 C8.69 9.49 9 11.38 9 14 C10.32 13.67 11.64 13.34 13 13 C25.88 39.47 25.88 39.47 31.28 52.13 C32.94 55.93 34.78 59.62 36.66 63.32 C41.15 72.22 45.4 81.22 49.62 90.25 C51.07 93.34 52.52 96.43 53.98 99.52 C54.5 100.62 54.5 100.62 55.03 101.75 C57.5 106.98 60.05 112.16 62.69 117.32 C63.91 119.81 65 122.33 66.08 124.88 C67.9 129.09 69.8 133.26 71.69 137.44 C72.1 138.36 72.52 139.28 72.95 140.23 C73.96 142.49 74.98 144.74 76 147 C123.49 147.02 170.98 147.04 218.48 147.05 C224.08 147.05 229.69 147.05 235.3 147.05 C236.41 147.06 237.53 147.06 238.68 147.06 C256.75 147.06 274.83 147.07 292.9 147.08 C311.45 147.09 329.99 147.09 348.53 147.09 C359.98 147.1 371.42 147.1 382.87 147.11 C390.71 147.11 398.56 147.11 406.41 147.11 C410.93 147.11 415.46 147.11 419.99 147.12 C424.14 147.12 428.28 147.12 432.43 147.12 C433.93 147.12 435.43 147.12 436.92 147.12 C444.35 147.14 451.63 146.98 459 146 C460.85 145.94 462.71 145.91 464.56 145.94 C465.41 145.95 466.26 145.96 467.13 145.96 C467.75 145.98 468.36 145.99 469 146 C466.14 148.86 463.85 148.41 459.88 148.62 C458.59 148.7 457.31 148.77 455.99 148.85 C455 148.9 454.02 148.95 453 149 C453 149.66 453 150.32 453 151 C452.41 151 451.83 151 451.23 151.01 C416.36 151.11 381.5 151.22 346.63 151.33 C342.42 151.34 338.22 151.36 334.01 151.37 C333.17 151.38 332.34 151.38 331.48 151.38 C318 151.42 304.52 151.47 291.05 151.5 C277.18 151.55 263.3 151.59 249.43 151.64 C241.66 151.66 233.88 151.69 226.11 151.71 C184.04 151.77 184.04 151.77 141.98 152.78 C128.93 153.24 115.87 153.11 102.81 153.06 C100.08 153.06 97.35 153.05 94.62 153.05 C88.08 153.04 81.54 153.02 75 153 C75 152.34 75 151.68 75 151 C73.35 151 71.7 151 70 151 C70 150.01 70 149.02 70 148 C69.34 148 68.68 148 68 148 C67.5 145.52 67.5 145.52 67 143 C66.34 143 65.68 143 65 143 C65 140.69 65 138.38 65 136 C64.34 136 63.68 136 63 136 C62.5 133.52 62.5 133.52 62 131 C61.34 131 60.68 131 60 131 C60 129.35 60 127.7 60 126 C59.34 126 58.68 126 58 126 C57.67 124.35 57.34 122.7 57 121 C56.34 121 55.68 121 55 121 C55 119.35 55 117.7 55 116 C54.34 116 53.68 116 53 116 C52.5 112.04 52.5 112.04 52 108 C51.34 108 50.68 108 50 108 C47 101.38 47 101.38 47 98 C46.34 98 45.68 98 45 98 C42 91.38 42 91.38 42 88 C41.34 88 40.68 88 40 88 C40 86.35 40 84.7 40 83 C39.34 83 38.68 83 38 83 C37.67 81.35 37.34 79.7 37 78 C36.34 78 35.68 78 35 78 C35 76.35 35 74.7 35 73 C34.34 73 33.68 73 33 73 C32.67 71.35 32.34 69.7 32 68 C31.34 68 30.68 68 30 68 C30 66.35 30 64.7 30 63 C29.34 63 28.68 63 28 63 C27.51 60.52 27.51 60.52 27 58 C26.34 58 25.68 58 25 58 C25 56.35 25 54.7 25 53 C24.34 53 23.68 53 23 53 C22.67 50.69 22.34 48.38 22 46 C21.34 46 20.68 46 20 46 C20 44.35 20 42.7 20 41 C19.34 41 18.68 41 18 41 C17.51 38.52 17.51 38.52 17 36 C16.34 36 15.68 36 15 36 C15 34.35 15 32.7 15 31 C14.34 31 13.68 31 13 31 C12.67 29.35 12.34 27.7 12 26 C11.34 26 10.68 26 10 26 C10 24.35 10 22.7 10 21 C9.34 21 8.68 21 8 21 C7.67 19.35 7.34 17.7 7 16 C6.34 16 5.68 16 5 16 C5 14.35 5 12.7 5 11 C4.34 11 3.68 11 3 11 C2.67 9.35 2.34 7.7 2 6 C1.34 6 0.68 6 0 6 C0 4.02 0 2.04 0 0 Z " fill="#262626" transform="translate(25,552)"/>
<path d="M0 0 C3.15 3.69 4.85 7.84 6.75 12.25 C7.1 13.05 7.45 13.85 7.81 14.67 C9.49 18.5 11.15 22.34 12.8 26.18 C16.05 33.72 19.5 41.1 23.23 48.42 C25.39 52.68 27.24 56.96 28.94 61.43 C30.81 65.95 33.09 70.26 35.32 74.61 C36.15 76.29 36.15 76.29 37 78 C37.3 78.6 37.61 79.19 37.92 79.81 C39.73 83.61 40.62 86.03 39 90 C36.99 92.59 36.99 92.59 34.31 95.38 C33.83 95.89 33.34 96.4 32.85 96.92 C31.79 98.03 30.74 99.14 29.68 100.25 C26.76 103.3 23.88 106.4 21 109.5 C19.81 110.77 18.62 112.04 17.43 113.32 C5.29 126.19 5.29 126.19 -6.12 139.69 C-7.8 141.76 -9.59 143.6 -11.48 145.47 C-14.57 148.59 -17.56 151.8 -20.56 155 C-21.27 155.75 -21.97 156.5 -22.7 157.28 C-31.15 166.28 -39.51 175.37 -47.85 184.48 C-50.75 187.65 -53.67 190.8 -56.58 193.96 C-66.71 204.84 -66.71 204.84 -76.38 216.12 C-79 219 -79 219 -82 219 C-82.33 221.97 -82.66 224.94 -83 228 C-83.66 228 -84.32 228 -85 228 C-86.16 224.53 -86.07 221.64 -86 218 C-85.34 218 -84.68 218 -84 218 C-83.94 217.22 -83.88 216.43 -83.81 215.62 C-82.73 212.12 -81.4 211.96 -78 211 C-78 210.01 -78 209.02 -78 208 C-73.58 203 -73.58 203 -71 203 C-70.67 202.01 -70.34 201.02 -70 200 C-69.34 200 -68.68 200 -68 200 C-68 198.68 -68 197.36 -68 196 C-65.64 193 -65.64 193 -63 193 C-63 192.34 -63 191.68 -63 191 C-60.46 188 -60.46 188 -58 188 C-58 187.34 -58 186.68 -58 186 C-57.34 186 -56.68 186 -56 186 C-56 185.01 -56 184.02 -56 183 C-55.01 183 -54.02 183 -53 183 C-53 182.01 -53 181.02 -53 180 C-52.34 180 -51.68 180 -51 180 C-50.67 178.68 -50.34 177.36 -50 176 C-49.34 176 -48.68 176 -48 176 C-48 175.01 -48 174.02 -48 173 C-47.01 173 -46.02 173 -45 173 C-45 172.34 -45 171.68 -45 171 C-44.34 171 -43.68 171 -43 171 C-43 170.01 -43 169.02 -43 168 C-42.01 168 -41.02 168 -40 168 C-40 167.34 -40 166.68 -40 166 C-39.34 166 -38.68 166 -38 166 C-38 165.01 -38 164.02 -38 163 C-37.01 163 -36.02 163 -35 163 C-35 162.34 -35 161.68 -35 161 C-34.34 161 -33.68 161 -33 161 C-33 160.01 -33 159.02 -33 158 C-30.53 157.01 -30.53 157.01 -28 156 C-28 155.01 -28 154.02 -28 153 C-27.34 153 -26.68 153 -26 153 C-25.67 152.01 -25.34 151.02 -25 150 C-24.34 150 -23.68 150 -23 150 C-23 149.34 -23 148.68 -23 148 C-22.34 148 -21.68 148 -21 148 C-20.67 147.01 -20.34 146.02 -20 145 C-19.34 145 -18.68 145 -18 145 C-18 144.34 -18 143.68 -18 143 C-17.34 143 -16.68 143 -16 143 C-15.67 141.35 -15.34 139.7 -15 138 C-14.34 138 -13.68 138 -13 138 C-13 137.34 -13 136.68 -13 136 C-10.46 133 -10.46 133 -8 133 C-8 132.34 -8 131.68 -8 131 C-5.46 128 -5.46 128 -3 128 C-3 127.34 -3 126.68 -3 126 C-2.34 126 -1.68 126 -1 126 C-1 125.01 -1 124.02 -1 123 C-0.01 123 0.98 123 2 123 C2 122.01 2 121.02 2 120 C2.66 120 3.32 120 4 120 C4 119.34 4 118.68 4 118 C4.99 118 5.98 118 7 118 C7 117.01 7 116.02 7 115 C7.66 115 8.32 115 9 115 C9.5 113.02 9.5 113.02 10 111 C11.32 110.67 12.64 110.34 14 110 C14.5 108.02 14.5 108.02 15 106 C15.66 106 16.32 106 17 106 C17 105.01 17 104.02 17 103 C17.99 103 18.98 103 20 103 C20 102.34 20 101.68 20 101 C20.66 101 21.32 101 22 101 C22 100.01 22 99.02 22 98 C22.99 98 23.98 98 25 98 C25 97.34 25 96.68 25 96 C25.66 96 26.32 96 27 96 C27 95.01 27 94.02 27 93 C28.65 92.34 30.3 91.68 32 91 C32 89.35 32 87.7 32 86 C31.34 86 30.68 86 30 86 C29.5 82.04 29.5 82.04 29 78 C28.34 78 27.68 78 27 78 C27 76.35 27 74.7 27 73 C26.34 73 25.68 73 25 73 C24.5 69.53 24.5 69.53 24 66 C23.34 66 22.68 66 22 66 C22 64.35 22 62.7 22 61 C21.34 61 20.68 61 20 61 C19.67 59.35 19.34 57.7 19 56 C18.34 56 17.68 56 17 56 C17 54.35 17 52.7 17 51 C16.34 51 15.68 51 15 51 C14.67 49.35 14.34 47.7 14 46 C13.34 46 12.68 46 12 46 C12 44.35 12 42.7 12 41 C11.34 41 10.68 41 10 41 C9.5 37.04 9.5 37.04 9 33 C8.34 33 7.68 33 7 33 C7 31.35 7 29.7 7 28 C6.34 28 5.68 28 5 28 C4.67 26.35 4.34 24.7 4 23 C3.34 23 2.68 23 2 23 C1.87 22.32 1.73 21.65 1.6 20.95 C1.33 19.62 1.33 19.62 1.06 18.25 C0.89 17.37 0.71 16.49 0.54 15.58 C0.2 13.98 -0.17 12.38 -0.6 10.8 C-1.09 8.58 -0.56 7.17 0 5 C-0.5 3.51 -0.5 3.51 -1 2 C-0.67 1.34 -0.34 0.68 0 0 Z " fill="#262626" transform="translate(108,322)"/>
<path d="M0 0 C23.93 -0.02 47.87 -0.04 71.8 -0.05 C82.92 -0.06 94.04 -0.06 105.16 -0.08 C114.87 -0.09 124.58 -0.09 134.3 -0.09 C139.42 -0.1 144.54 -0.1 149.66 -0.11 C170.22 -0.13 190.77 -0.05 211.33 0.41 C212.17 0.43 213 0.44 213.86 0.46 C228.36 0.77 242.63 1.96 257 4 C257 4.66 257 5.32 257 6 C257.66 5.99 258.33 5.98 259.01 5.96 C267.78 5.88 267.78 5.88 272 7 C272 7.66 272 8.32 272 9 C275.3 9 278.6 9 282 9 C282 9.66 282 10.32 282 11 C285.3 11.33 288.6 11.66 292 12 C292 12.66 292 13.32 292 14 C294.64 14 297.28 14 300 14 C300 14.66 300 15.32 300 16 C300.99 16.12 301.98 16.25 303 16.38 C307.09 16.95 311.01 17.95 315 19 C315 19.66 315 20.32 315 21 C316.65 21.33 318.3 21.66 320 22 C320 22.66 320 23.32 320 24 C322.31 24 324.62 24 327 24 C327 24.66 327 25.32 327 26 C328.65 26.33 330.3 26.66 332 27 C332 27.66 332 28.32 332 29 C333.65 29 335.3 29 337 29 C337 29.99 337 30.98 337 32 C337.99 32 338.98 32 340 32 C340 32.66 340 33.32 340 34 C341.65 34 343.3 34 345 34 C345 34.66 345 35.32 345 36 C345.66 36 346.32 36 347 36 C347 36.99 347 37.98 347 39 C348.65 39 350.3 39 352 39 C352 39.66 352 40.32 352 41 C352.99 41 353.98 41 355 41 C355 41.99 355 42.98 355 44 C356.65 44 358.3 44 360 44 C360 44.66 360 45.32 360 46 C360.66 46 361.32 46 362 46 C362.66 47.65 363.32 49.3 364 51 C363.01 51 362.02 51 361 51 C360.67 51.66 360.34 52.32 360 53 C359.2 52.42 359.2 52.42 358.38 51.82 C336.45 36.17 313.26 24.25 287.11 17.55 C285.16 17.04 283.23 16.5 281.3 15.95 C225.93 0.24 165.44 3.66 108.42 3.41 C99.52 3.37 90.62 3.32 81.72 3.27 C63.48 3.17 45.24 3.08 27 3 C27 2.67 27 2.34 27 2 C18.09 1.67 9.18 1.34 0 1 C0 0.67 0 0.34 0 0 Z " fill="#262626" transform="translate(253,91)"/>
<path d="M0 0 C0.33 0.99 0.66 1.98 1 3 C1.66 3 2.32 3 3 3 C3 8.94 3 14.88 3 21 C0.59 20.45 -1.81 19.89 -4.29 19.32 C-34.02 14.36 -49.14 28.44 -68.38 48.75 C-68.98 49.38 -69.58 50.02 -70.2 50.67 C-78.79 59.77 -87.39 68.96 -95.19 78.75 C-96.8 80.75 -98.31 82.23 -100.31 83.81 C-103.7 86.63 -106.51 89.75 -109.36 93.1 C-115.3 100 -115.3 100 -118 100 C-118.24 100.57 -118.49 101.15 -118.74 101.74 C-120.22 104.4 -121.95 106.08 -124.17 108.15 C-124.98 108.93 -125.79 109.71 -126.62 110.51 C-128.34 112.13 -130.06 113.75 -131.79 115.36 C-132.59 116.14 -133.4 116.91 -134.23 117.71 C-134.98 118.42 -135.72 119.12 -136.49 119.84 C-139.12 123.6 -137.29 126.35 -135.55 130.26 C-134.43 132.55 -133.31 134.85 -132.18 137.14 C-131 140 -131 140 -132 142 C-133.98 141.67 -135.96 141.34 -138 141 C-138.33 138.69 -138.66 136.38 -139 134 C-139.66 134 -140.32 134 -141 134 C-141 133.34 -141 132.68 -141 132 C-141.66 132 -142.32 132 -143 132 C-144.3 129.39 -144.13 127.41 -144.12 124.5 C-144.13 123.52 -144.13 122.54 -144.13 121.53 C-144 119 -144 119 -143 117 C-142.34 117 -141.68 117 -141 117 C-141 116.34 -141 115.68 -141 115 C-138.46 112 -138.46 112 -136 112 C-136 111.34 -136 110.68 -136 110 C-133.46 107 -133.46 107 -131 107 C-131 106.34 -131 105.68 -131 105 C-128.46 102 -128.46 102 -126 102 C-126 101.34 -126 100.68 -126 100 C-123.46 97 -123.46 97 -121 97 C-121 96.34 -121 95.68 -121 95 C-118.46 92 -118.46 92 -116 92 C-116 91.34 -116 90.68 -116 90 C-113.46 87 -113.46 87 -111 87 C-111 86.34 -111 85.68 -111 85 C-108.46 82 -108.46 82 -106 82 C-106 81.34 -106 80.68 -106 80 C-103.46 77 -103.46 77 -101 77 C-101 76.01 -101 75.02 -101 74 C-100.34 74 -99.68 74 -99 74 C-99 73.34 -99 72.68 -99 72 C-98.01 72 -97.02 72 -96 72 C-96 71.01 -96 70.02 -96 69 C-95.34 69 -94.68 69 -94 69 C-94 68.34 -94 67.68 -94 67 C-93.01 67 -92.02 67 -91 67 C-91 66.01 -91 65.02 -91 64 C-90.34 64 -89.68 64 -89 64 C-89 63.34 -89 62.68 -89 62 C-88.01 62 -87.02 62 -86 62 C-86 61.01 -86 60.02 -86 59 C-85.34 59 -84.68 59 -84 59 C-84 58.34 -84 57.68 -84 57 C-83.01 57 -82.02 57 -81 57 C-81 56.01 -81 55.02 -81 54 C-80.34 54 -79.68 54 -79 54 C-78.67 52.68 -78.34 51.36 -78 50 C-76.68 49.67 -75.36 49.34 -74 49 C-73.67 47.68 -73.34 46.36 -73 45 C-72.34 45 -71.68 45 -71 45 C-71 44.01 -71 43.02 -71 42 C-70.01 42 -69.02 42 -68 42 C-68 41.34 -68 40.68 -68 40 C-66.68 39.67 -65.36 39.34 -64 39 C-63.67 37.68 -63.34 36.36 -63 35 C-62.34 35 -61.68 35 -61 35 C-61 34.01 -61 33.02 -61 32 C-60.01 32 -59.02 32 -58 32 C-58 31.34 -58 30.68 -58 30 C-57.34 30 -56.68 30 -56 30 C-56 29.01 -56 28.02 -56 27 C-55.01 27 -54.02 27 -53 27 C-53 26.34 -53 25.68 -53 25 C-52.34 25 -51.68 25 -51 25 C-51 24.01 -51 23.02 -51 22 C-50.01 22 -49.02 22 -48 22 C-48 21.34 -48 20.68 -48 20 C-47.34 20 -46.68 20 -46 20 C-46 19.01 -46 18.02 -46 17 C-37.85 15.45 -29.58 15.95 -21.31 16.04 C-10.51 16.2 -10.51 16.2 0 14 C0 9.38 0 4.76 0 0 Z " fill="#262626" transform="translate(236,173)"/>
<path d="M0 0 C1.38 0 1.38 0 2.8 0.01 C5.89 0.02 8.98 0.04 12.08 0.06 C14.3 0.07 16.51 0.08 18.73 0.09 C24.75 0.12 30.78 0.15 36.8 0.18 C43.09 0.22 49.38 0.25 55.68 0.27 C66.24 0.32 76.8 0.38 87.36 0.43 C98.24 0.49 109.12 0.55 120 0.6 C120.67 0.6 121.34 0.61 122.03 0.61 C125.4 0.63 128.76 0.64 132.13 0.66 C160.04 0.79 187.95 0.94 215.86 1.08 C215.86 1.74 215.86 2.4 215.86 3.08 C156.46 3.08 97.06 3.08 35.86 3.08 C35.86 3.41 35.86 3.74 35.86 4.08 C84.37 4.41 132.88 4.74 182.86 5.08 C182.86 5.41 182.86 5.74 182.86 6.08 C119.17 6.08 55.48 6.08 -10.14 6.08 C-10.14 32.81 -10.14 59.54 -10.14 87.08 C-10.8 87.08 -11.46 87.08 -12.14 87.08 C-12.18 87.85 -12.22 88.62 -12.26 89.42 C-12.32 90.42 -12.39 91.42 -12.46 92.46 C-12.54 93.95 -12.54 93.95 -12.63 95.48 C-13.14 98.08 -13.14 98.08 -16.14 100.08 C-19.16 100.5 -19.16 100.5 -22.96 100.71 C-23.98 100.76 -23.98 100.76 -25.02 100.82 C-34.72 101.3 -44.44 101.17 -54.14 101.08 C-54.14 100.42 -54.14 99.76 -54.14 99.08 C-45.93 98.02 -37.79 97.96 -29.52 98.02 C-27.58 98.03 -27.58 98.03 -25.61 98.03 C-22.45 98.05 -19.3 98.06 -16.14 98.08 C-16.11 96.29 -16.11 96.29 -16.07 94.46 C-15.55 70 -14.98 45.54 -14.14 21.08 C-14.8 21.08 -15.46 21.08 -16.14 21.08 C-16.14 16.13 -16.14 11.18 -16.14 6.08 C-15.48 6.08 -14.82 6.08 -14.14 6.08 C-14.14 4.43 -14.14 2.78 -14.14 1.08 C-9.42 -0.13 -4.84 -0.04 0 0 Z " fill="#151515" transform="translate(249.1431427001953,88.91770935058594)"/>
<path d="M0 0 C2.87 0.57 3.86 0.86 6 3 C8.21 3.24 8.21 3.24 10.62 3.12 C11.44 3.11 12.26 3.09 13.1 3.07 C13.73 3.05 14.35 3.02 15 3 C15 3.66 15 4.32 15 5 C12.69 5 10.38 5 8 5 C7.67 6.65 7.34 8.3 7 10 C9.64 10 12.28 10 15 10 C15.66 8.68 16.32 7.36 17 6 C17.33 8.31 17.66 10.62 18 13 C18.66 12.34 19.32 11.68 20 11 C20.99 11.33 21.98 11.66 23 12 C23.33 13.65 23.66 15.3 24 17 C24.66 16.01 25.32 15.02 26 14 C26.99 14 27.98 14 29 14 C29.99 15.98 30.98 17.96 32 20 C32.33 18.02 32.66 16.04 33 14 C33.66 14 34.32 14 35 14 C35 16.64 35 19.28 35 22 C35.66 22 36.32 22 37 22 C37 19.36 37 16.72 37 14 C37.33 14 37.66 14 38 14 C38.5 19.45 38.5 19.45 39 25 C153.51 25 268.02 25 386 25 C386 25.33 386 25.66 386 26 C262.58 26 139.16 26 12 26 C9.69 21.38 7.38 16.76 5 12 C2.93 7.94 2.93 7.94 0.85 3.89 C0 2 0 2 0 0 Z " fill="#B3B3B3" transform="translate(89,674)"/>
<path d="M0 0 C0.99 0 1.98 0 3 0 C3.33 56.76 3.66 113.52 4 172 C2.68 172 1.36 172 0 172 C0 115.24 0 58.48 0 0 Z " fill="#DC97D4" transform="translate(390,228)"/>
<path d="M0 0 C0 0.66 0 1.32 0 2 C-3.3 2 -6.6 2 -10 2 C-10 2.66 -10 3.32 -10 4 C-13.3 4.33 -16.6 4.66 -20 5 C-20 5.66 -20 6.32 -20 7 C-21.37 7.09 -21.37 7.09 -22.77 7.18 C-23.96 7.27 -25.15 7.35 -26.38 7.44 C-28.15 7.56 -28.15 7.56 -29.96 7.68 C-32.92 7.81 -32.92 7.81 -35 9 C-36.74 9.15 -38.48 9.25 -40.23 9.32 C-41.26 9.36 -42.29 9.4 -43.35 9.44 C-44.43 9.48 -45.51 9.52 -46.62 9.56 C-47.71 9.61 -48.8 9.65 -49.92 9.69 C-52.61 9.8 -55.31 9.9 -58 10 C-58 9.67 -58 9.34 -58 9 C-57.13 8.82 -57.13 8.82 -56.24 8.63 C-55.07 8.38 -55.07 8.38 -53.88 8.12 C-53.11 7.96 -52.34 7.8 -51.55 7.63 C-48.95 7.03 -48.95 7.03 -46.3 6.02 C-42.03 4.7 -37.79 4.11 -33.38 3.5 C-31.58 3.24 -29.79 2.99 -28 2.73 C-27.13 2.61 -26.27 2.48 -25.39 2.36 C-22.39 1.91 -19.42 1.36 -16.44 0.81 C-10.94 -0.14 -5.57 -0.2 0 0 Z " fill="#1F1F1F" transform="translate(543,691)"/>
<path d="M0 0 C23.1 0 46.2 0 70 0 C70 0.66 70 1.32 70 2 C71.98 2 73.96 2 76 2 C76 2.66 76 3.32 76 4 C78.64 4 81.28 4 84 4 C84 4.66 84 5.32 84 6 C84.8 6.18 85.59 6.36 86.41 6.55 C91.98 7.87 97.05 9.11 102 12 C102 12.66 102 13.32 102 14 C98.62 13.41 95.7 12.55 92.56 11.19 C86.18 8.59 79.67 6.71 73 5 C71.95 4.73 70.9 4.46 69.82 4.18 C55.87 1.1 41.72 1.43 27.5 1.31 C24.83 1.28 22.15 1.24 19.48 1.21 C12.99 1.12 6.49 1.06 0 1 C0 0.67 0 0.34 0 0 Z " fill="#DD98D4" transform="translate(394,228)"/>
<path d="M0 0 C1.3 0.05 2.6 0.1 3.94 0.15 C5.31 0.2 6.68 0.26 8.05 0.32 C9.43 0.37 10.82 0.42 12.2 0.47 C15.59 0.6 18.98 0.74 22.36 0.88 C22.36 1.21 22.36 1.54 22.36 1.88 C21.64 1.9 20.92 1.93 20.18 1.95 C16.93 2.07 13.68 2.19 10.43 2.32 C9.29 2.36 8.15 2.4 6.98 2.44 C5.36 2.5 5.36 2.5 3.71 2.56 C2.71 2.6 1.71 2.64 0.68 2.67 C-1.6 2.63 -1.6 2.63 -2.64 3.88 C12.54 4.21 27.72 4.54 43.36 4.88 C43.36 5.21 43.36 5.54 43.36 5.88 C27.52 6.21 11.68 6.54 -4.64 6.88 C-4.97 11.83 -5.3 16.78 -5.64 21.88 C-6.63 21.88 -7.62 21.88 -8.64 21.88 C-8.63 20.61 -8.61 19.35 -8.6 18.05 C-8.59 16.39 -8.58 14.73 -8.57 13.07 C-8.57 12.23 -8.56 11.4 -8.55 10.54 C-8.55 9.74 -8.54 8.94 -8.54 8.11 C-8.53 7.37 -8.53 6.63 -8.52 5.87 C-8.56 3.67 -8.56 3.67 -9.64 0.88 C-6.16 -0.28 -3.66 -0.14 0 0 Z " fill="#DADADA" transform="translate(425.63671875,258.12109375)"/>
<path d="M0 0 C0.66 0 1.32 0 2 0 C2.33 2.31 2.66 4.62 3 7 C4.42 6.97 4.42 6.97 5.88 6.94 C9 7 9 7 11 8 C12.96 11.8 13.09 14.78 13 19 C13.29 20.67 13.61 22.35 14 24 C13.34 24 12.68 24 12 24 C12.5 24.93 12.99 25.86 13.5 26.81 C15 30 15 30 15 33 C14.34 33 13.68 33 13 33 C12.67 31.35 12.34 29.7 12 28 C11.34 28 10.68 28 10 28 C10 25.69 10 23.38 10 21 C9.34 21 8.68 21 8 21 C7.67 19.35 7.34 17.7 7 16 C6.34 16 5.68 16 5 16 C5 14.35 5 12.7 5 11 C4.34 11 3.68 11 3 11 C2.67 9.35 2.34 7.7 2 6 C1.34 6 0.68 6 0 6 C0 4.02 0 2.04 0 0 Z " fill="#1B1B1B" transform="translate(95,307)"/>
<path d="M0 0 C0.5 1.98 0.5 1.98 1 4 C0.34 4 -0.32 4 -1 4 C-1 4.66 -1 5.32 -1 6 C-2.14 6.65 -2.14 6.65 -3.31 7.31 C-6.19 8.76 -6.19 8.76 -7.05 11.57 C-10.23 15.53 -14.07 14.66 -18.89 14.57 C-19.9 14.57 -20.92 14.57 -21.96 14.57 C-25.32 14.57 -28.68 14.53 -32.04 14.49 C-34.37 14.48 -36.7 14.47 -39.03 14.47 C-45.16 14.45 -51.29 14.4 -57.42 14.34 C-63.67 14.29 -69.92 14.27 -76.18 14.24 C-88.45 14.19 -100.73 14.11 -113 14 C-113 13.67 -113 13.34 -113 13 C-111.75 13.01 -110.5 13.01 -109.21 13.02 C-97.43 13.06 -85.64 13.06 -73.86 13.02 C-67.8 13 -61.74 13 -55.68 13.03 C-49.83 13.06 -43.98 13.05 -38.13 13.01 C-35.9 13 -33.67 13.01 -31.44 13.03 C-28.32 13.06 -25.19 13.03 -22.07 13 C-20.69 13.03 -20.69 13.03 -19.28 13.06 C-12.87 12.91 -10.28 11.08 -6.46 5.96 C-4.63 3.51 -2.46 1.79 0 0 Z " fill="#FAC2DE" transform="translate(233,656)"/>
<path d="M0 0 C0 0.99 0 1.98 0 3 C0.99 3 1.98 3 3 3 C3 3.66 3 4.32 3 5 C3.66 5 4.32 5 5 5 C5 5.66 5 6.32 5 7 C5.99 7 6.98 7 8 7 C8 7.99 8 8.98 8 10 C9.65 10 11.3 10 13 10 C13 10.99 13 11.98 13 13 C13.66 13 14.32 13 15 13 C15 13.66 15 14.32 15 15 C15.99 15 16.98 15 18 15 C18 15.99 18 16.98 18 18 C18.66 18 19.32 18 20 18 C20 18.66 20 19.32 20 20 C19.01 19.67 18.02 19.34 17 19 C17 18.34 17 17.68 17 17 C13.61 15.49 13.61 15.49 10 15 C5.09 14.58 2.73 12.37 -0.81 9.06 C-1.57 8.38 -1.57 8.38 -2.33 7.68 C-6 4.27 -6 4.27 -6 2 C-4 0 -4 0 0 0 Z " fill="#1A1A1A" transform="translate(620,140)"/>
<path d="M0 0 C2.95 1.47 3.18 3.53 4.38 6.56 C5.88 10.31 7.42 13.94 9.31 17.5 C11 21 11 21 11 25 C10.01 25 9.02 25 8 25 C7.67 23.02 7.34 21.04 7 19 C5.68 19 4.36 19 3 19 C-3.38 7.58 -3.38 7.58 -1.06 1.56 C-0.71 1.05 -0.36 0.53 0 0 Z " fill="#363636" transform="translate(26,541)"/>
<path d="M0 0 C0.33 0.66 0.66 1.32 1 2 C4.03 2.66 4.03 2.66 7 3 C7 3.99 7 4.98 7 6 C7.33 6.99 7.66 7.98 8 9 C12.46 8.5 12.46 8.5 17 8 C17.33 8.66 17.66 9.32 18 10 C16.02 10.33 14.04 10.66 12 11 C11.67 11.99 11.34 12.98 11 14 C10.01 13.01 9.02 12.02 8 11 C7.67 12.65 7.34 14.3 7 16 C6.34 16 5.68 16 5 16 C4.67 16.99 4.34 17.98 4 19 C3.67 16.36 3.34 13.72 3 11 C3.66 10.67 4.32 10.34 5 10 C4.01 10 3.02 10 2 10 C1.67 11.32 1.34 12.64 1 14 C0.67 13.01 0.34 12.02 0 11 C-0.66 11 -1.32 11 -2 11 C-2 10.34 -2 9.68 -2 9 C-1.34 9 -0.68 9 0 9 C0 6.03 0 3.06 0 0 Z " fill="#EE86DC" transform="translate(585,469)"/>
</svg>
